<?xml version="1.0" encoding="utf-8"?>
<!-- Generator: Adobe Illustrator 23.0.2, SVG Export Plug-In . SVG Version: 6.00 Build 0)  -->
<svg version="1.1" id="Layer_1" xmlns="http://www.w3.org/2000/svg" xmlns:xlink="http://www.w3.org/1999/xlink" x="0px" y="0px"
	 viewBox="0 0 4000 4000" style="enable-background:new 0 0 4000 4000;" xml:space="preserve">
<style type="text/css">
	.st0{opacity:0.2;}
	.st1{fill:#000072;}
	.st2{fill:#8B93A1;}
	.st3{opacity:0.3;}
	.st4{fill:#FFFFFF;}
	.st5{fill:#7BA2FF;}
	.st6{fill:#4D4F9E;}
	.st7{opacity:0.6;}
	.st8{fill:#FF5722;}
	.st9{fill:none;}
	.st10{fill:#4A81FD;}
	.st11{fill:#C0BECC;}
	.st12{fill:#FFB78A;}
	.st13{fill:#5C6A79;}
	.st14{fill:#FF0660;}
	.st15{fill:#F9ED32;}
	.st16{fill:#5A5E8C;}
	.st17{fill:#B199C5;}
</style>
<g>
	<g class="st0">
		<ellipse class="st1" cx="2058.83" cy="3620" rx="1145" ry="115"/>
	</g>
	<g>
		<path class="st2" d="M2219.01,3567.8c-26.99-24.87-73.62-42.16-127.67-45.04c24.73-170.19,25.07-386.71,25.07-392.63
			c-1.4,1.31-43.93-2.4-43.93-2.4s-42.1,3.71-43.5,2.4c0,5.93,0.34,222.69,25.11,392.93c-51.82,3.69-96.32,20.68-122.44,44.75
			c-7.71,7.11-7.71,19.44,0,26.54c29.62,27.3,82.88,45.52,143.67,45.52s114.05-18.22,143.67-45.52
			C2226.73,3587.24,2226.73,3574.91,2219.01,3567.8z"/>
	</g>
	<g class="st3">
		<path class="st1" d="M2116.4,3130.13c0,2.49-0.05,43.37-2.08,102.65l-83.7-13.7c-1.58-51.78-1.63-86.64-1.63-88.95
			c1.4,1.31,43.5-2.4,43.5-2.4S2115,3131.44,2116.4,3130.13z"/>
	</g>
	<g class="st3">
		<path class="st1" d="M2219.01,3594.32c-29.62,27.31-82.89,45.54-143.67,45.54s-114.05-18.22-143.67-45.54
			c-7.73-7.1-7.73-19.4,0-26.5c1.09-0.99,2.22-1.99,3.35-2.94c63.94,25.28,173.33,52.19,286.79,6.24
			C2226.61,3578.32,2225.66,3588.22,2219.01,3594.32z"/>
	</g>
	<g>
		<path class="st1" d="M2075.34,3654.86c-62.71,0-120.22-18.5-153.84-49.49c-6.75-6.22-10.62-15.07-10.62-24.3
			s3.87-18.09,10.63-24.31c26.46-24.38,67.97-41.2,115.57-47.11c-22.82-169.18-23.09-377.37-23.09-379.52
			c0-5.97,3.54-11.38,9.02-13.76c2.87-1.24,5.97-1.53,8.9-0.95c0.12,0,0.24,0,0.37,0c5.61,0,23.81-1.3,38.9-2.63
			c0.87-0.08,1.74-0.08,2.62,0c15.63,1.36,34.5,2.59,39.7,2.63c2.92-0.58,6.03-0.29,8.9,0.95c5.48,2.38,9.02,7.79,9.02,13.76
			c0,2.14-0.27,209.87-23.01,378.95c49.82,5.29,93.22,22.31,120.77,47.69l0,0c6.75,6.22,10.63,15.08,10.63,24.31
			s-3.87,18.09-10.63,24.31C2195.56,3636.36,2138.05,3654.86,2075.34,3654.86z M2044.09,3145.02c0.54,52.27,3.91,231.9,24.86,375.88
			c0.6,4.13-0.54,8.32-3.16,11.56c-2.61,3.25-6.46,5.26-10.62,5.56c-46.86,3.34-89.23,18.6-113.33,40.82
			c-0.83,0.76-0.95,1.73-0.95,2.24s0.12,1.48,0.95,2.24c27.81,25.63,78.96,41.55,133.51,41.55s105.7-15.92,133.51-41.55
			c0.83-0.76,0.95-1.73,0.95-2.24s-0.12-1.48-0.95-2.24c0,0,0,0,0,0c-25.08-23.12-69.3-38.48-118.3-41.09
			c-4.21-0.22-8.13-2.21-10.8-5.47c-2.67-3.26-3.85-7.49-3.24-11.67c20.91-143.92,24.27-323.33,24.81-375.58
			c-7.02-0.41-16.32-1.15-28.81-2.24C2060.21,3143.87,2051.04,3144.6,2044.09,3145.02z M2039.2,3119.15
			C2039.2,3119.15,2039.2,3119.15,2039.2,3119.15C2039.2,3119.15,2039.2,3119.15,2039.2,3119.15z M2106.21,3119.15
			C2106.2,3119.15,2106.2,3119.15,2106.21,3119.15C2106.2,3119.15,2106.2,3119.15,2106.21,3119.15z M2106.23,3119.13
			C2106.22,3119.13,2106.22,3119.13,2106.23,3119.13C2106.22,3119.13,2106.22,3119.13,2106.23,3119.13z M2039.18,3119.13
			C2039.18,3119.13,2039.18,3119.13,2039.18,3119.13C2039.18,3119.13,2039.18,3119.13,2039.18,3119.13z M2106.25,3119.11
			C2106.24,3119.11,2106.24,3119.11,2106.25,3119.11C2106.24,3119.11,2106.24,3119.11,2106.25,3119.11z M2039.16,3119.11
			C2039.17,3119.11,2039.17,3119.11,2039.16,3119.11C2039.17,3119.11,2039.17,3119.11,2039.16,3119.11z M2106.27,3119.08
			c0,0.01-0.01,0.02-0.02,0.02C2106.26,3119.1,2106.27,3119.09,2106.27,3119.08z M2039.13,3119.08c0,0.01,0.01,0.01,0.02,0.02
			C2039.14,3119.09,2039.14,3119.09,2039.13,3119.08z M2106.29,3119.06c0,0-0.01,0.01-0.01,0.01
			C2106.28,3119.07,2106.29,3119.07,2106.29,3119.06z M2039.11,3119.06c0,0,0.01,0.01,0.01,0.01
			C2039.12,3119.07,2039.12,3119.07,2039.11,3119.06z M2107.5,3118.08c-0.4,0.29-0.8,0.62-1.2,0.99
			C2106.68,3118.71,2107.08,3118.38,2107.5,3118.08z M2037.92,3118.08c0.41,0.3,0.81,0.63,1.2,0.99
			C2038.71,3118.7,2038.31,3118.37,2037.92,3118.08z"/>
	</g>
	<g>
		<path class="st2" d="M1883.15,3411.49c116.66,23.21,234.8,23.01,354.21,2.92c11.34-1.91,18.7-13.33,15.5-24.37l-0.19-0.65
			c-5.35-17.44-22.75-28.28-40.94-26.91c-106.26,7.97-214.81,6.99-325.18-1.1L1883.15,3411.49z"/>
	</g>
	<g>
		<path class="st1" d="M2064.9,3444.12c-62.94,0-124.66-5.97-184.68-17.92c-7.39-1.47-12.54-8.2-12.04-15.73l3.39-50.12
			c0.27-3.98,2.11-7.69,5.13-10.31c3.02-2.62,6.95-3.91,10.93-3.63c113.33,8.31,221.99,8.67,322.96,1.1
			c25.47-1.96,49.17,13.85,56.41,37.48l0.22,0.72c2.74,9.46,1.3,19.53-3.89,27.8c-5.24,8.34-13.8,14.06-23.49,15.69
			C2180.76,3439.15,2122.32,3444.12,2064.9,3444.12z M1899.01,3399.26c107.33,19.69,220.24,19.81,335.85,0.37
			c1.72-0.29,2.66-1.43,3.07-2.08c0.46-0.73,0.93-1.91,0.51-3.34l-0.15-0.5c-3.15-10.27-13.81-17.15-25.46-16.28
			c-97.95,7.35-202.96,7.34-312.35-0.04L1899.01,3399.26z"/>
	</g>
	<g>
		<path class="st4" d="M1576.78,2668.74c0,0-60.3,55.77-155.26,40.7c0,0-85.92-31.65-135.66,19.59c0,0-4.52,183.9,340.67,229.12
			c0,0,107.02-90.44,100.99-150.74C1721.49,2747.12,1576.78,2668.74,1576.78,2668.74z"/>
	</g>
	<g class="st3">
		<path class="st1" d="M1727.52,2807.42c-1.11-11.11-6.95-22.83-15.71-34.57c-1.47,3.41-3.13,6.83-4.94,10.26
			c-37.07,70.31-119.34,103.33-196.02,82.38c-133.97-36.59-191-98.37-215.29-145.12c-3.36,2.58-6.61,5.46-9.71,8.66
			c0,0-4.52,183.9,340.67,229.12C1626.52,2958.15,1733.54,2867.71,1727.52,2807.42z"/>
	</g>
	<g>
		<path class="st1" d="M1626.52,2973.15c-0.65,0-1.3-0.04-1.95-0.13c-147.08-19.27-251.21-65.34-309.47-136.93
			c-45-55.29-44.3-105.34-44.25-107.44c0.09-3.77,1.6-7.37,4.23-10.08c52.68-54.29,137.31-28.13,150.1-23.75
			c86.03,13.07,140.85-36.6,141.4-37.1c4.7-4.36,11.67-5.24,17.33-2.18c15.53,8.41,151.89,84.08,158.52,150.38
			c6.62,66.24-94.66,153.91-106.24,163.69C1633.48,2971.91,1630.05,2973.15,1626.52,2973.15z M1301.24,2735.11
			c1.42,13.13,8.01,47.15,38.72,83.97c36.42,43.67,114.83,100.22,281.87,123.31c30.75-27.14,94.83-92.89,90.77-133.48
			c-3.61-36.1-80.86-91.84-134.26-122.16c-20.89,15.56-78.15,50.33-159.17,37.5c-0.97-0.15-1.91-0.4-2.83-0.74
			C1415.62,2723.25,1344.2,2697.86,1301.24,2735.11z"/>
	</g>
	<g>
		<path class="st4" d="M1929.5,3188.02l-179.38,62.56c14.32,38.44,1.51,133.4-18.09,180.13c-19.6,46.73,44.47,49.74,44.47,49.74
			c137.17-55.77,205-222.34,205-222.34L1929.5,3188.02z"/>
	</g>
	<g class="st3">
		<path class="st1" d="M1929.5,3188.02l-52.86,18.44l0,0c26.3,35.45,28.55,83.49,5.12,120.91
			c-29.02,46.34-75.97,106.1-141.04,142.11c14.28,9.95,35.78,10.98,35.78,10.98c137.17-55.77,205-222.34,205-222.34L1929.5,3188.02z
			"/>
	</g>
	<g>
		<path class="st1" d="M1776.5,3495.46c-0.23,0-0.47,0-0.71-0.01c-4.17-0.2-41.16-2.61-56.32-26.62c-5.4-8.54-10-23.11-1.27-43.92
			c18.3-43.64,30.48-135.22,17.87-169.09c-1.41-3.78-1.24-7.96,0.48-11.62c1.71-3.65,4.83-6.46,8.63-7.78l179.38-62.56
			c6.21-2.15,13.08-0.04,16.99,5.23l52.01,70.09c3.13,4.2,3.82,9.74,1.85,14.59c-2.87,7.04-71.84,173.08-213.25,230.58
			C1780.36,3495.08,1778.44,3495.46,1776.5,3495.46z M1768.22,3260.16c9.65,49.64-5.14,135.29-22.35,176.35
			c-4.52,10.77-1.89,14.93-1.03,16.29c4.8,7.61,20.31,11.39,29.26,12.41c111.25-47.15,175.27-172.97,190.15-205.18l-40.22-54.21
			L1768.22,3260.16z"/>
	</g>
	<g>
		<path class="st5" d="M2535.47,2959.64c0,0-39.16-39.79-111.83-51.1c-42.24-6.6-95.78-3.57-159.5,22.47
			c-173.33,70.86-254.73,13.57-254.73,13.57l-3.66-4.75c0,0-198.34-103.78-242.05,143.43l187.04,42.69l0.11,1.37l4.3-0.36
			c289.42,78.41,536.6,22.61,536.6,22.61C2562.6,3101.37,2535.47,2959.64,2535.47,2959.64z"/>
	</g>
	<g class="st3">
		<path class="st1" d="M2212.89,3114.92c-19.39-2.29-35.72-5.13-49.46-8.33c-32.33-7.51-33.26-53.38-1.17-61.83
			c77.93-20.5,157.9-73.02,264.68-103.19c44.03-12.44,79.39-2.53,107.16,16.77c-7.25-6.76-45.36-39.67-110.46-49.8
			c-42.24-6.6-95.78-3.57-159.5,22.47c-173.33,70.86-254.73,13.57-254.73,13.57l-3.66-4.75c0,0-198.34-103.78-242.05,143.43
			l187.04,42.69l0.11,1.37l4.3-0.36c289.42,78.41,536.6,22.61,536.6,22.61c22.03-14.98,34.57-39.01,41.42-65
			C2468.02,3126.93,2325.43,3128.23,2212.89,3114.92z"/>
	</g>
	<g>
		<path class="st1" d="M2277.92,3184.09c-90.93,0-203.5-9.57-324.15-41.96l-1.67,0.14c-3.7,0.31-7.34-0.75-10.27-2.96l-181.47-41.42
			c-7.79-1.78-12.82-9.36-11.43-17.24c14.64-82.79,47.88-137.45,98.78-162.48c75.96-37.33,161.4,6.49,165,8.37
			c1.92,1.01,3.6,2.41,4.92,4.13l2.01,2.6c11.79,6.73,89.37,44.96,238.84-16.14c58.22-23.8,114.58-31.69,167.49-23.41
			c76.68,11.93,118.47,53.63,120.21,55.4c2.08,2.11,3.48,4.79,4.04,7.7c1.19,6.19,28.09,152.02-50.02,205.16
			c-1.56,1.06-3.3,1.82-5.14,2.23C2489.1,3165.55,2404.48,3184.09,2277.92,3184.09z M1956.24,3112c0.96,0.07,1.9,0.23,2.83,0.48
			c266.11,72.09,498.35,28.8,526.53,23.06c46.91-34.95,42.54-128.68,36-168.25c-10.3-8.85-45.01-35.33-100.26-43.93
			c-47.47-7.41-98.43-0.17-151.51,21.54c-178.88,73.11-265.45,14.47-269.04,11.94c-1.23-0.86-2.32-1.91-3.24-3.1l-1.5-1.95
			c-14.14-6.56-79.83-33.96-135.25-6.62c-39.01,19.26-65.75,61.85-79.59,126.69l172.89,39.46
			C1954.81,3111.5,1955.54,3111.73,1956.24,3112z"/>
	</g>
	<g>
		<path class="st6" d="M2423.91,2906.92l-0.27,1.63c-42.24-6.6-95.78-3.57-159.5,22.47c-173.33,70.86-254.73,13.57-254.73,13.57
			l-3.66-4.75l-43.09,33.37l-2.99,0.04c0.5,18.59-1.49,39.93-10.58,54.99l-6.51,0.54l8.27,98.54l5.79,69.01
			c0,0-102.52,48.21-208.02,66.29c0,0-155.43-139.24-117.58-328.58c3.53-17.77,9.72-32.83,18.09-45.49
			c-50.06-18.04-129.02-70.55-117.58-221.31c0,0,214.03-275.85,542.65-250.25C2402.83,2442.63,2618.36,2631.07,2423.91,2906.92z"/>
	</g>
	<g class="st7">
		<g>
			<path class="st4" d="M1531.56,2667.24c-0.81,10.99-1.18,21.43-1.13,31.38c51.51-54.81,177.08-169.89,353.15-208.95
				c-9.82-15.01-19.11-30.34-27.83-45.99C1653.97,2509.53,1531.56,2667.24,1531.56,2667.24z"/>
		</g>
	</g>
	<g class="st3">
		<path class="st1" d="M2074.21,2416.99c-26.95-2.08-53.09-2.17-78.41-0.54c65.21,5.06,132.27,21.25,198.25,51.05
			c63.23,28.54,106.88,71.61,130.31,117.85c-200.77-40.21-685.77-40.22-685.77-40.22s371.1,43.85,599.82,107.23
			c73.4,20.34,77.32,122.76,5.82,149.01c-10.59,3.89-22.04,7.08-34.34,9.5c-45.83,8.98-93.31,3.96-136.99-12.56
			c-97.35-36.83-207.4-85.41-233.83-125.05c0,0-7.29,35.13,3.32,75.67c-51.15-4.21-92.22,3.95-123.5,15.76
			c-80.74,30.5-168.71-23.26-175.36-109.31c-0.06-0.74-0.11-1.47-0.16-2.2c-7.78,8.86-11.8,14.06-11.8,14.06
			c-11.44,150.77,67.52,203.27,117.58,221.31c-5.13,7.76-9.32,16.54-12.7,26.17c21.79-11.62,52.05-21.41,94.1-26.66
			c162.8-20.35,194.45,52,194.45,52s-46.35-24.87-88.18-12.44c0,0,50.87,13.57,66.7,84.79c3.17,14.29,7.1,29.02,8.57,43.82
			c12.91,130.28-161.26,151.93-195.62,171.66c18.37,22.36,32.17,34.73,32.17,34.73c105.5-18.09,208.02-66.29,208.02-66.29
			l-5.79-69.01l-8.28-98.54l6.51-0.54c9.09-15.06,11.08-36.4,10.58-54.99l2.98-0.05l43.1-33.37l3.66,4.75
			c0,0,81.4,57.3,254.73-13.57c63.72-26.05,117.26-29.08,159.5-22.48l0.27-1.63C2618.36,2631.07,2402.83,2442.63,2074.21,2416.99z"
			/>
	</g>
	<g>
		<path class="st1" d="M1748.62,3277.63c-3.66,0-7.24-1.34-10.01-3.83c-6.61-5.92-161.35-147.2-122.27-342.69
			c2.5-12.61,6.33-24.37,11.44-35.11c-52.54-24.29-122.24-84.16-111.17-229.89c0.22-2.93,1.3-5.73,3.11-8.06
			c2.24-2.89,56.01-71.54,151.38-137.85c88.3-61.39,230.05-131.7,404.29-118.16c206.04,16.08,361.45,94.58,415.7,209.99
			c41.31,87.87,22.94,191.88-53.12,300.97c-2.16,7.01-9.25,11.51-16.64,10.38c-47.46-7.4-98.41-0.17-151.5,21.54
			c-159.35,65.13-245.44,25.71-264.89,14.54l-30.24,23.42c-0.49,22.05-4.77,39.89-12.76,53.13c-0.9,1.5-2.05,2.8-3.37,3.88
			l13.03,155.2c0.53,6.25-2.89,12.16-8.56,14.83c-4.26,2-105.58,49.28-211.87,67.5C1750.31,3277.55,1749.46,3277.63,1748.62,3277.63
			z M1546.19,2673.02c-8.42,131.09,53.9,181.91,108.03,201.43c4.33,1.56,7.7,5.02,9.15,9.38c1.45,4.37,0.81,9.16-1.72,12.99
			c-7.51,11.38-12.86,24.88-15.89,40.14c-31.84,159.27,81.88,283.68,107.76,309.55c81.44-15.09,160.61-47.84,187.29-59.52
			l-13.17-156.95c-0.33-3.96,0.92-7.9,3.49-10.94c2.14-2.52,5.03-4.26,8.23-4.96c3.95-9.99,5.78-23.79,5.32-40.48
			c-0.11-4.01,1.39-7.9,4.17-10.79c2.25-2.35,5.2-3.89,8.36-4.41l39.36-30.48c3.15-2.44,7.16-3.52,11.09-3.02
			c3.95,0.5,7.54,2.56,9.97,5.71l2.01,2.6c11.79,6.73,89.37,44.96,238.84-16.14c54.5-22.28,107.35-30.61,157.3-24.79
			c67.55-98.48,84.21-190.87,48.16-267.55c-49.6-105.52-195.73-177.61-390.89-192.84
			C1776.18,2408.84,1572.13,2641.77,1546.19,2673.02z"/>
	</g>
	<g>
		<path class="st1" d="M1636.81,2880.43c12.13-20.3,31.11-36.41,51.78-46.56c20.79-10.23,42.92-15.43,64.71-17.98
			c21.86-2.46,43.52-2.2,64.85-0.52c21.32,1.7,42.35,4.65,63.08,8.71c41.47,8.01,81.78,19.81,121.25,33.5
			c19.74,6.83,39.28,14.15,58.51,22.2c19.24,8.01,38.34,16.3,56.95,25.6c-39.32-13.49-79.22-24.86-119.27-34.98
			c-20.04-4.99-40.2-9.42-60.41-13.23c-20.2-3.83-40.44-7.19-60.72-9.57c-40.45-4.87-81.37-6.32-120.1-0.5
			c-38.49,5.78-74.88,20.19-95.99,49.59c-4.76,6.62-13.98,8.14-20.61,3.38c-6.27-4.5-7.96-13-4.09-19.52L1636.81,2880.43z"/>
	</g>
	<g>
		<path class="st1" d="M1928.06,3032.59l-2.71-68.73c0-0.12,0.09-0.21,0.2-0.22c0.09,0,0.16,0.04,0.2,0.11l31.34,61.23
			c3.86,7.55,0.87,16.81-6.68,20.67c-7.55,3.86-16.8,0.87-20.67-6.68C1928.7,3036.95,1928.15,3034.73,1928.06,3032.59z"/>
	</g>
	<g>
		<path class="st1" d="M1944.8,2975.28l0.56-8.16l0.12-8.18c-0.2-5.39-0.53-10.9-1.57-16.23c-0.94-5.39-2.46-10.7-4.8-15.73
			c-2.36-4.99-5.43-9.94-10.17-13.48c5.87,1.27,11.32,4.8,16.09,8.87c4.81,4.12,9.01,9.04,12.62,14.32
			c3.75,5.26,6.76,10.9,9.64,16.7l3.86,8.83l3.38,9.02c2.98,7.95-1.05,16.82-9.01,19.8c-7.95,2.98-16.82-1.05-19.79-9.01
			c-0.79-2.1-1.09-4.27-0.95-6.37L1944.8,2975.28z"/>
	</g>
	<g>
		<path class="st1" d="M2040.77,2921.42l-25.84,30.27c-5.49,6.44-15.16,7.2-21.6,1.71c-6.44-5.49-7.2-15.16-1.71-21.6
			c1.39-1.63,3.12-2.92,4.92-3.82l35.75-17.48c3.5-1.71,7.72-0.26,9.43,3.24C2043.02,2916.34,2042.54,2919.35,2040.77,2921.42z"/>
	</g>
	<g>
		<path class="st1" d="M2309.35,2977.84c-9.16,10.62-20.05,19.11-31.46,26.88l-8.66,5.68c-2.96,1.77-5.98,3.43-8.99,5.1
			c-5.98,3.48-12.21,6.42-18.47,9.34c-25.12,11.5-51.86,19.07-78.92,23.87l-20.38,3.07c-6.79,1.06-13.67,1.16-20.49,1.78
			c-13.65,1.44-27.36,0.98-41,0.93c-6.83,0.19-13.63-0.63-20.42-1.17c-6.79-0.58-13.57-1.12-20.33-1.84
			c-13.48-1.88-26.85-4.39-40.11-7.03c-1.03-0.21-1.69-1.2-1.49-2.23c0.18-0.89,0.95-1.51,1.82-1.53l0.13,0
			c13.53-0.31,26.91,0.02,40.25,0.05c13.36-0.75,26.66-0.45,39.9-1.56c26.49-1.61,52.7-4.84,78.54-9.7
			c25.72-5.41,51.06-12.18,75.72-21.12c24.6-8.94,48.82-19.76,71.36-33.72l0.18-0.11c1.03-0.64,2.39-0.32,3.02,0.71
			C2310.07,2976.08,2309.96,2977.13,2309.35,2977.84z"/>
	</g>
	<g class="st7">
		<g>
			<path class="st4" d="M1983.77,3397.93c0,0,120.4,10.74,228.37-7.91"/>
		</g>
		<g>
			<path class="st4" d="M2066.77,3408.45c-48.44,0-83.02-2.99-83.66-3.05c-4.13-0.37-7.17-4.01-6.81-8.13
				c0.37-4.13,4.08-7.17,8.13-6.81c1.2,0.11,120.71,10.43,226.43-7.84c4.06-0.67,7.96,2.03,8.67,6.12c0.7,4.08-2.04,7.96-6.12,8.67
				C2162.95,3406.12,2109.47,3408.45,2066.77,3408.45z"/>
		</g>
	</g>
	<g>
		<path class="st8" d="M2515.87,2560.21l0.85,16.16c0.9,17.09-12.26,31.76-29.36,32.42c-25.69,1-69.84-3.08-141.07-25.22
			c-133.4-41.45-114.56-76.88-114.56-76.88L2515.87,2560.21"/>
		<path class="st1" d="M2479.86,2626.43c-36.26,0-82.88-8.78-138.76-26.14c-72.7-22.59-113.51-46.87-124.77-74.21
			c-5.96-14.49-1.54-24.79-0.05-27.6c3.59-6.76,11.18-10.39,18.69-8.98l284.14,53.51c7.93,1.49,13.81,8.21,14.24,16.27l0.85,16.16
			c0.69,13.06-3.78,25.56-12.59,35.21c-8.74,9.57-20.66,15.12-33.57,15.62C2485.38,2626.38,2482.65,2626.43,2479.86,2626.43z
			 M2268.05,2531.34c14.55,9.58,39.77,21.95,83.43,35.51c70.21,21.82,112.26,25.33,135.19,24.44c3.49-0.14,6.71-1.65,9.08-4.24
			c2.44-2.68,3.68-6.15,3.49-9.78l-0.13-2.42L2268.05,2531.34z"/>
	</g>
	<g class="st0">
		<path class="st1" d="M2515.87,2560.21l0.85,16.16c0.9,17.09-12.26,31.76-29.36,32.42c-25.69,1-69.84-3.08-141.07-25.22
			c-133.4-41.45-114.56-76.88-114.56-76.88L2515.87,2560.21"/>
	</g>
	<g>
		<g>
			<path class="st8" d="M1773.49,1893.19c0,0-133.4-45.22-189.93,203.5s156.01,174.1,203.5,9.04
				C1834.54,1940.67,1773.49,1893.19,1773.49,1893.19z"/>
		</g>
		<g>
			<path class="st1" d="M1634.92,2274.91c-6.78,0-13.43-0.8-19.86-2.45c-25.39-6.53-80.96-37.11-48.56-179.64
				c23.65-104.04,63.55-172.41,118.61-203.23c49.32-27.6,92.2-13.58,94-12.97c1.85,0.63,3.58,1.56,5.12,2.76
				c2.88,2.23,69.82,56.76,19.64,231.19C1777.64,2201.78,1699.92,2274.91,1634.92,2274.91z M1749.03,1907.42
				c-12.19,0-29.17,2.6-47.71,13.2c-44.97,25.71-79.79,87.93-100.7,179.94c-17.75,78.11-9.1,129.7,23.15,137.99
				c40.07,10.33,119.22-42.96,146.46-137.67c37.71-131.08,3.39-181.48-5.71-191.96C1761.27,1908.25,1755.91,1907.42,1749.03,1907.42
				z"/>
		</g>
	</g>
	<g>
		<path class="st8" d="M2515.36,2036.63c-1.49-7.42-3.07-14.61-4.79-21.53c-25.89-108.15-70.85-154.81-102.12-174.8
			c-16.27-10.41-28.8-13.61-33.01-14.44c-0.08-0.04-0.16-0.07-0.24-0.1c0.08,0.03,0.16,0.07,0.24,0.1c-0.99-0.2-1.58-0.28-1.58-0.28
			l-0.09-0.45c-398.35-174.33-650.78,88.41-650.78,88.41c-94.96,165.06,31.65,580.32,31.65,580.32l762.75,66.34
			c48.21-42.19,16.55-239.67,16.55-239.67l-1.09-1.27c8.32-7.19,16.64-15.1,24.83-23.83
			C2655.68,2191.43,2515.36,2036.63,2515.36,2036.63z"/>
	</g>
	<g>
		<path class="st9" d="M2250.61,2264.79c-34.65-25.32-56.05-58.9-69.14-88.47c-13.63-30.82-49.9-44.44-80.07-29.44
			c-49.57,24.66-126.07,47.67-215.58,22.95c-32.37-8.94-57.92-18.45-78.11-27.91c-39.58-18.57-84.75,10.92-83.89,54.64
			c5.57,280.59,197.34,289.73,371.52,277.77C2292.82,2460.75,2328.99,2322.07,2250.61,2264.79z"/>
	</g>
	<g class="st0">
		<path class="st1" d="M2537.22,2333.57c-11.44,4.16-23.15,7.64-34.87,10.36c-104.78,24.1-116.08-9.04-116.85-90.44
			c-0.72-81.4-76.11-117.58-76.11-117.58c24.1-13.57,63.31-15.06,63.31-15.06c-25.64-39.21-99.49-28.67-99.49-28.67
			c-41.87-129.69-22.61-230.36,191.87-202.59c-19.45-30.98-39.98-49.16-56.62-59.78c-16.28-10.45-28.81-13.61-33.01-14.47
			c-0.99-0.18-1.58-0.27-1.58-0.27l-0.09-0.45c-398.35-174.33-650.78,88.41-650.78,88.41c-94.96,165.06,31.65,580.32,31.65,580.32
			l762.75,66.34C2555.36,2516.49,2543.83,2387.21,2537.22,2333.57z M1777.3,1994.97c33.16,42.21,84.41,69.34,214.05,46.73
			c129.63-22.61,49.74,113.05-85.92,78.38C1746.46,2079.46,1777.3,1994.97,1777.3,1994.97z M2299.79,2329.8
			c-1.91,4.77-44.22,12.05-47.48,14.98c-9.04,55.68-33.83,121.08-156.96,129.54c-174.18,11.97-365.94,2.82-371.52-277.77
			c-0.87-43.72,44.3-73.21,83.89-54.64c20.18,9.47,45.74,18.97,78.11,27.91c89.51,24.72,166.01,1.71,215.58-22.95
			c30.17-15.01,66.43-1.38,80.07,29.44c2.26,5.1,4.78,10.32,7.55,15.59c48.21-16.9,108.51,3.38,120.37,54.8
			C2318.44,2278.36,2313.36,2298.14,2299.79,2329.8z"/>
	</g>
	<g>
		<ellipse class="st10" cx="1400.42" cy="1530.29" rx="195.58" ry="226.11"/>
	</g>
	<g class="st7">
		<g>
			<path class="st4" d="M1238.75,1544.61c0-124.88,87.57-226.11,195.58-226.11c17.23,0,33.92,2.6,49.84,7.43
				c-25.39-13.93-53.78-21.75-83.75-21.75c-108.02,0-195.58,101.23-195.58,226.11c0,104.96,61.87,193.19,145.75,218.67
				C1284.47,1712.69,1238.75,1634.83,1238.75,1544.61z"/>
		</g>
	</g>
	<g>
		<path class="st1" d="M1400.42,1768.9c-114.74,0-208.08-107.04-208.08-238.61s93.34-238.61,208.08-238.61
			s208.08,107.04,208.08,238.61S1515.15,1768.9,1400.42,1768.9z M1400.42,1316.69c-100.95,0-183.08,95.82-183.08,213.61
			s82.13,213.61,183.08,213.61s183.08-95.82,183.08-213.61S1501.37,1316.69,1400.42,1316.69z"/>
	</g>
	<g>
		<ellipse class="st10" cx="1467.12" cy="1495.25" rx="195.58" ry="226.11"/>
	</g>
	<g>
		<path class="st1" d="M1467.11,1733.85c-114.74,0-208.08-107.04-208.08-238.61s93.34-238.61,208.08-238.61
			c114.74,0,208.09,107.04,208.09,238.61S1581.86,1733.85,1467.11,1733.85z M1467.11,1281.64c-100.95,0-183.08,95.82-183.08,213.61
			s82.13,213.61,183.08,213.61s183.09-95.82,183.09-213.61S1568.07,1281.64,1467.11,1281.64z"/>
	</g>
	<g>
		<path class="st1" d="M2515.87,2577.71c-0.5,0-1.01-0.02-1.51-0.06l-762.73-66.32c-7.12-0.62-13.14-5.5-15.22-12.33
			c-5.26-17.25-127.71-424.49-30.09-594.17c4.82-8.38,15.53-11.25,23.9-6.44c8.38,4.82,11.26,15.52,6.45,23.9
			c-81.6,141.84,10.87,488.2,29.94,555.21l742.18,64.54c23.22-33.06,18.19-145.04,6.4-218.72c-1.53-9.54,4.97-18.52,14.51-20.05
			c9.56-1.49,18.52,4.97,20.05,14.51c5.54,34.57,30.51,209.37-22.34,255.61C2524.19,2576.18,2520.09,2577.71,2515.87,2577.71z"/>
	</g>
	<g>
		<path class="st11" d="M2382.46,2604.56l-451.67-47.54l7.17-68.07l451.67,47.54c18.8,1.98,32.43,18.82,30.45,37.62
			C2418.1,2592.9,2401.26,2606.53,2382.46,2604.56z"/>
	</g>
	<g class="st3">
		<path class="st1" d="M2382.46,2604.56l-451.67-47.54l7.17-68.07l451.67,47.54c18.8,1.98,32.43,18.82,30.45,37.62
			C2418.1,2592.9,2401.26,2606.53,2382.46,2604.56z"/>
	</g>
	<g>
		<path class="st1" d="M2386.14,2619.75c-1.74,0-3.49-0.09-5.24-0.28h0l-451.67-47.54c-8.24-0.86-14.21-8.25-13.34-16.48l7.16-68.08
			c0.42-3.96,2.39-7.59,5.48-10.09c3.09-2.5,7.03-3.66,11.01-3.26l451.67,47.54c13.08,1.38,24.83,7.76,33.11,17.98
			c8.28,10.22,12.07,23.05,10.69,36.13s-7.76,24.83-17.98,33.11C2408.17,2615.94,2397.36,2619.75,2386.14,2619.75z M2384.03,2589.64
			c5.08,0.53,10.11-0.95,14.11-4.18c3.99-3.23,6.48-7.82,7.02-12.92c1.11-10.55-6.56-20.02-17.11-21.14l-436.75-45.97l-4.02,38.24
			L2384.03,2589.64z"/>
	</g>
	<g>
		<g>
			<path class="st1" d="M2299.75,2335.79c0.43,1.81-2.08,4.27-7.43,6.86c-5.37,2.43-13.72,4.85-24.68,4.94
				c-10.85,0.09-24.59-2.47-37.79-10.91c-6.53-4.27-12.85-10.01-17.87-17.88c-2.42-4.03-4.61-8.51-5.79-13.99
				c-1.09-5.43-1.29-12.22,1.85-19.16c0.72-1.69,1.87-3.31,2.92-4.88c1.13-1.51,2.51-2.81,3.87-4.11c1.39-1.17,2.88-2.1,4.38-3.05
				c1.48-0.86,2.95-1.4,4.45-2.03c5.82-1.99,11.26-2.4,15.79-2.01c4.68,0.27,8.79,1.16,12.62,2.21c1.64,0.46,3.26,0.91,4.86,1.35
				c1.46,0.43,2.9,0.85,4.33,1.28c11.39,3.22,21.58,5.07,29.79,5.39c8.14,0.2,14.24-1.03,18.34-2.76c4.23-1.63,6.63-3.43,8.46-2.87
				c1.78,0.42,2.62,4.89-1.15,10.69c-3.58,5.92-12.29,11.69-23.32,14.25c-11.01,2.52-24.01,2.33-37.54,0.06
				c-3.24-0.6-6.54-1.22-9.92-1.85c-2.66-0.51-5.3-0.85-7.56-0.83c-2.41-0.15-4.13,0.41-5.07,0.7c-0.12,0.13-0.4,0.14-0.45,0.21
				c-0.08-0.02,0.15,0.33-0.3-0.2c-0.03-0.11-0.46-0.47-0.46-0.47c0.27,0.19,0.04,0.01,0.52,0.28c0.76,0.38,0.26,0.03,0.4,0.24
				c0.06,0.15-0.13,0.11-0.06,0.39c-0.05,0.38,0.02,1.04,0.09,1.78c0.26,1.58,1.07,3.59,2.1,5.58c2.24,4.01,5.62,7.9,9.46,11.06
				c7.77,6.34,16.99,10.12,25.22,12.2C2286.45,2332.43,2298.9,2331.77,2299.75,2335.79z"/>
		</g>
	</g>
	<g>
		<g>
			<path class="st1" d="M2306.53,2218.22c0.07,3.73-12.09,4.78-24.17,15.81c-6,5.53-11.99,13.55-16.97,24.07
				c-2.5,5.23-4.81,11.02-6.82,17.24c-1,3.11-1.94,6.32-2.79,9.62c-0.82,3.19-1.66,6.88-2.12,9.7c-1.21,7.26-8.07,12.16-15.33,10.95
				c-0.89-0.15-1.75-0.38-2.56-0.69l-0.11-0.05c-2.12-0.82-3.1-1.32-4.49-2c-1.32-0.64-2.49-1.35-3.74-2.04
				c-2.39-1.44-4.71-3.01-6.92-4.73c-4.37-3.49-8.57-7.39-12.08-12c-7.24-9.02-11.72-19.7-13.81-30.01
				c-2.03-10.37-1.77-20.26-0.76-29.31c0.37-2.36,0.92-4.76,1.41-7.07c0.47-2.32,0.95-4.58,1.97-6.88c0.89-2.27,1.75-4.49,2.72-6.64
				c1.28-2.12,2.59-4.18,3.9-6.15c5.75-7.83,13.92-12.89,21.32-15.07c15.07-3.96,26.01-0.69,32.89,1.86
				c6.92,2.8,10.07,5.89,9.47,7.66c-0.6,1.82-4.6,2.3-11.18,2.91c-6.42,0.62-16.03,1.37-24.18,5.71c-3.95,2.28-7.06,5.34-9.29,9.5
				c-2.44,4.01-3.15,10.12-3.8,16.52c-0.14,7.03,0.19,14.24,1.84,21.11c1.72,6.82,4.64,13.29,9.11,18.82
				c2.12,2.86,4.75,5.27,7.38,7.52c1.36,1.1,2.75,2.09,4.16,3.02c0.7,0.4,1.42,0.89,2.08,1.24c0.58,0.34,1.58,0.82,1.5,0.81
				l-18,10.21c1.01-4.73,2.08-8.36,3.34-12.31c1.24-3.85,2.62-7.56,4.11-11.15c2.97-7.18,6.45-13.87,10.35-19.93
				c7.71-12.14,17.65-21.64,27.6-26.92c10.03-5.32,19.3-6.25,25.18-5.52c2.98,0.32,5.2,0.99,6.66,1.8
				C2305.84,2216.59,2306.55,2217.39,2306.53,2218.22z"/>
		</g>
	</g>
	<g>
		<g>
			<path class="st12" d="M2546.77,1336.97v180.88c0,0-6.87,104.82-75.43,185.54c-197.93,13.84-379.13,151.76-476.45,240.44
				c-47.35,43.14-74.84,74.66-74.84,74.66s-53.23-22.61-73.8-51.64l-0.09-2.08c-23.79,1.27-49.38,1.54-76.02,0.27
				c-167.72-7.82-374.93-76.52-417.71-357.38c0,0-54.67-47.66-102.11-152.21c-24.51-54.04-47.08-123.27-59.15-208.97l2.71-2.85
				c21.71,20.53,49.65,37.9,85.87,48.88c-1.13-2.58-49.33-108.67-19.53-244.19l1.9-0.59c15.65,51.87,51.69,106.72,126.21,151.31
				c0,0,4.52-101.34,65.03-203.9c33.51,62.22,100.39,133.45,233.43,157.19c0,0,0.72-17.5,1.9-40.97
				c38.48,23.97,91.03,40.61,160.9,33.42c0,0-2.58-10.54-5.16-28.72c6.78,3.48,14.02,6.56,21.75,9.13c0,0-6.87-107.22,11.94-195.31
				c20.39,56.44,61.14,131.23,140.32,177.22c0,0,0-40.25,15.15-92.75c24.51,103.42,101.97,269.56,345.85,327.13
				c0,0,91.71,102.83,165.01-6.11L2546.77,1336.97z"/>
		</g>
		<g>
			<path class="st1" d="M1920.04,2036c-2.3,0-4.62-0.45-6.83-1.39c-5.56-2.36-52.23-22.76-76.76-51.86
				c-22.63,0.9-45.17,0.83-67.14-0.22c-172.23-8.03-386.57-78.26-433.23-366.21c-14.89-14.5-60.88-63.69-101.69-153.64
				c-29.28-64.56-49.65-136.48-60.54-213.76c-0.75-5.3,0.97-10.64,4.66-14.51l2.71-2.85c6.65-6.98,17.7-7.26,24.7-0.64
				c13.09,12.39,28.01,22.81,44.59,31.18c-13.03-44.79-27.82-124.54-7.37-217.53c1.35-6.15,5.9-11.1,11.91-12.96l1.89-0.59
				c4.46-1.38,9.29-0.92,13.4,1.26c4.12,2.19,7.19,5.93,8.54,10.4c14.93,49.49,46.88,91.83,95.14,126.15
				c5.71-38.65,21.46-110.02,64.27-182.58c3.21-5.44,9.02-8.74,15.42-8.61c6.31,0.12,12.07,3.64,15.06,9.2
				c28.04,52.05,85.54,117.92,201.45,144.28c0.28-5.99,0.62-13,1-20.64c0.31-6.19,3.87-11.76,9.37-14.63
				c5.5-2.87,12.1-2.62,17.36,0.65c37.52,23.37,81.51,34.19,130.72,32.24c-0.51-3.09-1.04-6.51-1.56-10.22
				c-0.91-6.47,1.86-12.92,7.18-16.71c3.93-2.8,8.76-3.8,13.37-2.94c-0.84-38.19-0.11-109.57,13.35-172.63
				c1.63-7.64,8.13-13.27,15.92-13.8c7.67-0.57,14.99,4.16,17.65,11.51c16.85,46.62,49,108.41,108.61,152.28
				c2.07-17.24,6.02-40.5,13.58-66.71c2.16-7.5,9.03-12.65,16.81-12.65c0.14,0,0.28,0,0.43,0c7.95,0.19,14.77,5.72,16.6,13.46
				c22.08,93.19,94.69,257.92,332.84,314.13c3.5,0.83,6.65,2.71,9.04,5.38c0.34,0.38,37.24,40.81,77.88,37.95
				c21.71-1.53,41.75-15.72,59.56-42.18c2.61-3.87,6.66-6.55,11.25-7.42c4.58-0.87,9.34,0.13,13.18,2.77l2.3,1.58
				c4.75,3.26,7.59,8.66,7.59,14.42v180.88c0,0.38-0.01,0.76-0.04,1.15c-0.29,4.52-8.08,111.56-79.55,195.73
				c-3.05,3.59-7.42,5.8-12.12,6.13c-195.06,13.64-375.62,153.66-465.88,235.92c-45.93,41.85-73.17,72.92-73.44,73.23
				C1929.84,2033.9,1925,2036,1920.04,2036z M1862.97,1959.91c12.47,15.03,36.69,29.19,52.8,37.27
				c11.79-12.71,34.92-36.73,67.33-66.27c92.48-84.27,276.81-227.04,479.47-244.38c57.62-71.88,66.09-161.88,66.69-169.33v-138.21
				c-17.2,14.39-36.14,22.34-56.64,23.74c-48.76,3.35-89.61-32.81-102.25-45.41c-203.24-49.65-293.14-173.97-332.88-272.93
				c-1.52,14.07-1.56,22.55-1.56,22.72c0,6.26-3.34,12.04-8.77,15.17c-5.43,3.13-12.11,3.11-17.52-0.03
				c-59.4-34.5-98.13-84.09-123.17-130.66c-6.78,68.05-2.89,131.68-2.83,132.5c0.37,5.81-2.17,11.43-6.79,14.98
				c-2.89,2.23-6.36,3.46-9.9,3.62c0.51,4.28-0.57,8.63-3.08,12.19c-2.92,4.13-7.47,6.8-12.5,7.32
				c-54.13,5.58-103.28-1.88-146.54-22.16c-0.36,8.1-0.57,13.01-0.57,13.03c-0.21,5.05-2.59,9.76-6.53,12.92
				c-3.95,3.16-9.05,4.46-14.03,3.58c-122.88-21.93-191.57-83.33-229.54-139.34c-44.04,87.87-48.33,168.74-48.37,169.62
				c-0.29,6.15-3.78,11.7-9.21,14.61c-5.42,2.91-11.97,2.77-17.26-0.39c-48.92-29.27-85.8-65.02-110.2-106.71
				c-7.52,97.39,22.5,168.84,26.54,177.92c2.78,6.26,1.68,13.63-2.85,18.76c-4.54,5.13-11.61,7.21-18.17,5.22
				c-21.81-6.62-41.86-15.75-59.96-27.3c11.18,59.61,28.47,115.39,51.54,166.25c45.04,99.27,97.18,145.82,97.7,146.28
				c3.09,2.72,5.15,6.46,5.77,10.53c41.05,269.56,240.84,335.06,401.22,342.54c24.26,1.15,49.24,1.06,74.28-0.27
				c4.63-0.25,9.24,1.38,12.7,4.53C1860.35,1954.02,1862.08,1956.83,1862.97,1959.91z"/>
		</g>
	</g>
	<g>
		<g>
			<path class="st1" d="M1779.14,2029.14c-3.28-1.86,3.19-19.46,14.47-39.38l5.98,10.27l-0.34,0.02c-9.5,0.03-17.64,4.06-23.5,7.76
				c-5.88,3.71-9.57,6.69-11.21,5.69c-1.61-0.92-0.63-6.3,4.65-12.88c2.65-3.25,6.45-6.76,11.55-9.55
				c5.07-2.8,11.53-4.73,18.35-4.78l0.49-0.02c3.7-0.17,6.83,2.68,7,6.38c0.06,1.31-0.26,2.54-0.86,3.6l-0.17,0.29
				C1794.22,2016.44,1782.42,2031,1779.14,2029.14z"/>
		</g>
	</g>
	<g>
		<g>
			<path class="st1" d="M1888.7,2098.82c-3.77-0.07-6.48-18.62-6.08-41.51l10.16,6.17l-0.29,0.18
				c-8.33,4.56-13.56,11.98-16.94,18.03c-3.4,6.07-5.21,10.45-7.13,10.35c-1.85-0.04-3.55-5.23-2.05-13.54
				c0.78-4.12,2.44-9.02,5.59-13.91c3.12-4.87,7.87-9.66,13.84-12.95l0.42-0.26c3.16-1.91,7.28-0.9,9.19,2.26
				c0.68,1.12,0.99,2.36,0.97,3.58l-0.01,0.33C1895.89,2080.46,1892.48,2098.89,1888.7,2098.82z"/>
		</g>
	</g>
	<g>
		<g>
			<path class="st1" d="M2099.97,2018.12c-2.88,2.44-17.16-9.7-31.97-27.17l-0.2-0.23c-2.39-2.82-2.05-7.05,0.77-9.44
				c1-0.85,2.2-1.35,3.41-1.53l0.49-0.07c6.71-1.21,13.42-0.5,18.91,1.31c5.53,1.8,9.91,4.56,13.12,7.26
				c6.4,5.49,8.35,10.59,6.94,11.8c-1.42,1.28-5.6-0.97-12.06-3.53c-6.45-2.56-15.19-5.02-24.53-3.3l-0.34,0.04l3.98-11.2
				C2093.25,1999.58,2102.85,2015.68,2099.97,2018.12z"/>
		</g>
	</g>
	<g>
		<path class="st13" d="M2610.08,1128.95c-16.41,103.92-39.88,168.22-65.61,206.43c-73.3,108.94-165.01,6.11-165.01,6.11
			c-243.88-57.57-321.34-223.71-345.85-327.13c-15.15,52.5-15.15,92.75-15.15,92.75c-79.18-45.99-119.93-120.79-140.32-177.22
			c-18.81,88.09-11.94,195.31-11.94,195.31c-7.73-2.58-14.97-5.65-21.75-9.13c2.58,18.18,5.16,28.72,5.16,28.72
			c-69.87,7.19-122.42-9.45-160.9-33.42c-1.17,23.47-1.9,40.97-1.9,40.97c-133.04-23.74-199.92-94.96-233.43-157.19
			c-60.51,102.56-65.03,203.9-65.03,203.9c-74.52-44.59-110.57-99.44-126.21-151.31l-1.9,0.59
			c-29.8,135.53,18.4,241.62,19.53,244.19c-36.22-10.99-64.17-28.35-85.87-48.88l-2.71,2.85c12.07,85.69,34.64,154.93,59.15,208.97
			c-109.44-74.98-124.27-205.17-124.27-205.17l-48.3,84.97c-10.81-52.09-16.51-105.95-16.51-161.08
			c0-455.78,388.41-825.29,867.48-825.29c179.8,0,346.8,52.05,485.36,141.18l0.41-0.63c0,0,7.91-96.46,33.92-58.02
			s26,107.4,26,107.4s174.1-29.39,149.23,4.52s-104.78,70.86-104.78,70.86S2673.39,728.75,2610.08,1128.95z"/>
	</g>
	<g class="st7">
		<g>
			<path class="st4" d="M2448.42,431.42c-26-38.44-33.92,58.02-33.92,58.02l-0.41,0.63c-138.56-89.13-305.56-141.18-485.36-141.18
				c-207.86,0-398.63,69.59-548.03,185.58c-7.72,4.72-15.47,9.93-23.15,15.63c-22.28,16.52-40.87,34.76-54.49,52.48
				c-149.74,148.31-241.8,349.72-241.8,571.59c0,55.12,5.7,108.98,16.51,161.08l8.09-14.2c-4.3-33.33-6.51-67.24-6.51-101.66
				c0-204.91,78.54-392.36,208.5-536.66c23.53,18.73,83.13,2.62,139.19-38.95c60.29-44.71,93.62-101.94,74.43-127.81
				c-0.87-1.18-1.87-2.24-2.93-3.25c130.83-75.28,284.24-118.63,448.29-118.63c179.8,0,346.8,52.05,485.36,141.18l0.41-0.63
				c0,0,7.91-96.46,33.92-58.02c0.14,0.23,0.27,0.41,0.41,0.63C2463.07,461.04,2457.23,444.49,2448.42,431.42z"/>
		</g>
	</g>
	<g class="st3">
		<path class="st1" d="M1441.11,882.5l12.26,112.65c-60.51,102.56-65.03,203.9-65.03,203.9c-74.52-44.59-110.57-99.44-126.21-151.31
			l-1.9,0.59c-29.8,135.53,18.41,241.62,19.54,244.19c-36.22-10.99-64.17-28.35-85.88-48.88l-2.71,2.85
			c12.07,85.69,34.64,154.93,59.15,208.97c-109.44-74.98-124.27-205.17-124.27-205.17l-48.3,84.97
			c-6.74-32.56-11.53-65.8-14.11-99.62c0-0.05,0-0.05,0-0.05c9.77-93.11,56.39-167.68,56.39-167.68
			c2.26,104.01,90.44,137.92,90.44,137.92c-24.87-135.66,38.44-226.11,38.44-226.11c2.98,26.23,9.63,48.43,18.18,67.15
			c30.61,66.79,85.83,88.86,85.83,88.86C1330.32,1031.73,1441.11,882.5,1441.11,882.5z"/>
	</g>
	<g class="st3">
		<path class="st1" d="M2518.87,614.2c0,0,79.91-36.95,104.78-70.86c14.7-20.08-40.2-17.95-87.5-12.89l-68.51,60.37
			c0,0,117.58,150,55.76,371.58c0,0-43.89,5.4-100.8,1.41c35.67,31.73,97.05,40.03,97.05,40.03s-83.66,49.74-185.41,11.31
			c-101.75-38.44-129.63-100.99-129.63-100.99c40.25,25.61,96.06,32.73,126.5,34.69c-75.61-20.83-147.64-66.48-160.79-163.57
			c0,0-188.8,45.22-179.75,205.76c0,0-94.96-56.53-65.57-160.54c0,0-133.4,74.61-99.49,228.37c0,0-47.48-24.87-74.61-81.4
			c0,0-20.35,70.09,24.87,131.14c0,0-133.4-38.44-178.62-101.75c0,0-4.52,49.74,27.13,94.96c0,0-78.82,0.95-134.99-54.49
			c39.34,45.58,101.02,87.77,197.53,105c0,0,0.72-17.5,1.9-40.97c38.48,23.97,91.03,40.61,160.9,33.42c0,0-2.58-10.54-5.16-28.72
			c6.78,3.48,14.02,6.56,21.75,9.13c0,0-6.87-107.22,11.94-195.31c20.39,56.44,61.14,131.23,140.32,177.22c0,0,0-40.25,15.15-92.75
			c24.51,103.42,101.97,269.56,345.85,327.13c0,0,91.71,102.83,165.01-6.1c25.73-38.21,49.2-102.52,65.62-206.43
			C2673.39,728.75,2518.87,614.2,2518.87,614.2z"/>
	</g>
	<g>
		<path class="st1" d="M1453.37,995.14c9.18,17,20.8,34.68,35.63,51.91C1475.26,1033.4,1462.87,1016.4,1453.37,995.14z"/>
	</g>
	<g>
		<path class="st1" d="M1250.33,1470.45c-2.95,0-5.91-0.87-8.48-2.62c-76.53-52.43-108.95-129.46-122.17-175.97l-28.88,50.81
			c-3.09,5.43-9.23,8.38-15.38,7.4c-6.16-0.97-11.08-5.66-12.35-11.77c-11.16-53.79-16.82-109.01-16.82-164.13
			c0-463.34,395.88-840.29,882.48-840.29c168.82,0,332,45.24,473.49,131.07c5.22-34.06,15.03-53.16,29.26-56.89
			c7.49-1.96,18.61-0.95,29.36,14.94c20.03,29.61,26.03,73.93,27.82,98.29c133.23-20.82,145.31-1.24,149.39,5.37
			c2.26,3.66,6.54,13.47-2.3,25.53c-19.2,26.19-64.48,52.21-91.01,65.96c39.97,43.85,132.15,184.52,80.17,513.13
			c-15.27,96.67-38.14,168.15-67.99,212.47c-23.73,35.27-52.14,54.27-84.44,56.46c-48.49,3.33-89.03-33.31-100.81-45.18
			c-209.04-50.83-297.76-180.92-335.4-280.79c-2.72,20.01-2.8,32.65-2.8,32.87c-0.01,5.36-2.88,10.31-7.53,12.98
			c-4.66,2.67-10.38,2.66-15-0.03c-62.03-36.03-101.36-88.67-126.04-136.97c-7.99,71.3-3.76,140.28-3.71,141.13
			c0.32,4.98-1.87,9.79-5.82,12.84c-3.28,2.53-7.41,3.57-11.45,2.94c0.17,0.77,0.27,1.18,0.27,1.2c1.03,4.21,0.18,8.66-2.32,12.2
			s-6.41,5.83-10.72,6.28c-55.09,5.65-104.95-2.26-148.6-23.56c-0.47,10.33-0.74,16.79-0.74,16.81c-0.18,4.33-2.22,8.36-5.6,11.08
			s-7.76,3.84-12.03,3.07c-124.63-22.24-193.11-85.32-230.27-141.82c-46.11,89.86-50.53,173.55-50.57,174.46
			c-0.24,5.27-3.24,10.03-7.89,12.53c-4.65,2.5-10.27,2.37-14.79-0.34c-51.26-30.67-89.19-68.49-113.27-112.82
			c-9.93,102.12,21.87,177.8,26.04,187.2c2.38,5.36,1.45,11.69-2.44,16.09c-3.88,4.39-9.94,6.19-15.57,4.49
			c-23.56-7.15-45.04-17.26-64.2-30.21c11.18,61.98,28.88,119.9,52.78,172.59c2.78,6.13,1.13,13.36-4.02,17.69
			C1257.19,1469.27,1253.76,1470.45,1250.33,1470.45z M1126.05,1235.28c1,0,2.01,0.1,3.01,0.31c6.36,1.3,11.16,6.55,11.89,13
			c0.12,1.01,10.72,85.48,72.22,154.29c-16.85-48.31-29.2-99.97-36.86-154.3c-0.64-4.54,0.83-9.12,3.99-12.44l2.71-2.85
			c5.7-5.99,15.16-6.23,21.17-0.55c14.61,13.82,31.46,25.23,50.33,34.1c-13.27-43.27-30.15-125.33-8.95-221.73
			c1.16-5.27,5.06-9.51,10.21-11.11l1.9-0.59c3.82-1.18,7.95-0.79,11.48,1.08c3.53,1.88,6.17,5.09,7.32,8.91
			c15.43,51.17,48.84,94.76,99.43,129.81c5.15-37.32,20.37-110.84,64.53-185.7c2.75-4.66,7.8-7.45,13.21-7.38
			c5.41,0.1,10.35,3.12,12.92,7.89c28.52,52.95,87.22,120.08,206.01,146.18c0.3-6.58,0.68-14.66,1.13-23.61
			c0.26-5.31,3.32-10.08,8.03-12.54c4.71-2.46,10.37-2.25,14.88,0.56c38.68,24.09,84.04,34.97,134.98,32.49
			c-0.64-3.77-1.33-8.1-2.02-12.95c-0.79-5.55,1.59-11.07,6.16-14.32c4.25-3.03,9.74-3.61,14.5-1.61
			c-0.95-37.09-0.61-110.71,13.22-175.48c1.4-6.55,6.97-11.38,13.65-11.83c6.58-0.47,12.85,3.57,15.13,9.87
			c17.29,47.86,50.62,111.6,112.96,155.96c1.89-17.44,5.82-42.25,13.98-70.55c1.89-6.55,7.95-10.9,14.78-10.83
			c6.82,0.16,12.66,4.9,14.23,11.54c22.22,93.75,95.24,259.47,334.7,315.99c2.99,0.71,5.7,2.32,7.75,4.62
			c0.36,0.4,38.03,41.72,79.9,38.78c22.53-1.58,43.21-16.14,61.47-43.28c27.38-40.66,48.66-108.09,63.25-200.4v0
			c61.18-386.75-83.86-499.27-85.33-500.36c-4.25-3.15-6.53-8.32-5.99-13.58c0.54-5.27,3.82-9.86,8.62-12.08
			c19.07-8.82,68.66-34.71,92.04-58.15c-23.97-2.31-80.02,3.12-127.7,11.17c-4.32,0.74-8.8-0.49-12.17-3.33
			c-3.37-2.85-5.32-7.04-5.32-11.45c0-0.63-0.33-60.75-21.23-95.56c-3.63,10.6-7.27,29.61-8.74,47.4c-0.21,2.44-1,4.8-2.32,6.86
			l-0.41,0.63c-2.15,3.35-5.54,5.72-9.43,6.56c-3.89,0.85-7.96,0.11-11.31-2.04c-141.15-90.8-306.18-138.79-477.25-138.79
			c-470.06,0-852.48,363.49-852.48,810.29c0,39.37,3,78.79,8.93,117.66l27.83-48.96
			C1115.72,1238.12,1120.74,1235.28,1126.05,1235.28z"/>
	</g>
	<g>
		<path class="st1" d="M2033.6,1031.84c-9.66,0-17.5-7.81-17.5-17.48v-0.04c0-9.67,7.84-17.5,17.5-17.5s17.5,7.83,17.5,17.5
			C2051.1,1023.98,2043.27,1031.84,2033.6,1031.84z"/>
	</g>
	<g>
		<path class="st4" d="M2518.89,614.19c0,0,144.71,117.58,30.15,524.57l88.18,58.03C2759.31,721.96,2518.89,614.19,2518.89,614.19z"
			/>
	</g>
	<g>
		<path class="st1" d="M2637.22,1211.79c-2.89,0-5.76-0.84-8.25-2.47l-88.18-58.03c-5.46-3.59-7.96-10.3-6.19-16.59
			c109.83-390.2-23.89-507.79-25.25-508.93c-5.74-4.81-7.1-13.15-3.13-19.49s11.96-8.84,18.81-5.76
			c2.65,1.19,65.41,30.11,112.12,120.01c61.27,117.91,66.18,279.4,14.59,480.01c-1.21,4.69-4.6,8.51-9.12,10.26
			C2640.87,1211.46,2639.04,1211.79,2637.22,1211.79z M2566.41,1132.23l61.36,40.38c54.42-226.63,21.72-361.92-16.1-436.05
			c-9.46-18.54-19.69-34.25-29.86-47.46C2610.58,766.9,2628.75,904.7,2566.41,1132.23z"/>
	</g>
	<g>
		<path class="st8" d="M2626.36,1935.02c-10.9,61.68-111.29,78.64-111.29,78.64l-6.01,1.45c-42.55-177.76-136.7-189.52-136.7-189.52
			l-0.09-0.45c-94.42,16.55-231.31,68.01-365.16,216.34c0,0-137.88,76.97-237.05-74.21l0.09-2.22c26.64,1.27,52.23,0.99,76.02-0.27
			l0.09,2.08c20.58,29.03,73.8,51.64,73.8,51.64s27.49-31.52,74.84-74.66c97.32-88.68,278.52-226.6,476.45-240.44
			c44.63-3.12,90.08,0.05,135.66,11.53c0,0,22.97,35.05-18.13,72.54c0,0,38.66,42.33-8.5,68.96
			C2580.37,1856.43,2637.22,1873.34,2626.36,1935.02z"/>
	</g>
	<g class="st0">
		<path class="st1" d="M2515.55,1922c47.17-26.64,8.5-68.96,8.5-68.96c41.11-37.49,18.13-72.54,18.13-72.54
			c-45.58-11.49-91.03-14.65-135.66-11.53c-197.93,13.84-379.13,151.76-476.45,240.44c-3.75,3.41-7.33,6.73-10.82,9.98
			c-20.34-8.2-80.61-34.35-103.94-65.15c0,0-4.41,65.84,66.76,101.31c26.06,12.99,38.91,11.95,44.76,5.45
			c46.31-0.63,80.26-19.54,80.26-19.54c133.85-148.33,270.74-199.79,365.16-216.34l0.09,0.45c0,0,94.15,11.76,136.7,189.52
			l6.01-1.45c0,0,22.06-3.73,46.61-14.04C2571.76,1938.75,2515.55,1922,2515.55,1922z"/>
	</g>
	<g>
		<path class="st1" d="M1924.07,2075.72c-50.69,0-114.08-20.22-166.56-100.22c-1.71-2.61-2.57-5.7-2.45-8.82l0.09-2.22
			c0.16-4,1.91-7.76,4.85-10.47c2.95-2.7,6.86-4.14,10.85-3.92c24.35,1.15,49.42,1.07,74.51-0.27c3.98-0.21,7.92,1.18,10.88,3.88
			c2.2,1.99,3.73,4.58,4.45,7.41c13.13,16.1,39.24,31.11,55.63,39.17c11.31-12.25,34.88-36.9,68.46-67.51
			c93.38-85.1,280.63-229.99,485.51-244.32c48.27-3.38,95.51,0.64,140.38,11.95c3.65,0.92,6.82,3.18,8.88,6.32
			c9.46,14.43,17.82,48.61-11.13,82.18c5.98,9.81,12.41,24.82,9.77,41.34c-1.05,6.6-3.86,14.87-10.62,23.11
			c20.88,14.47,41.08,41.57,33.56,84.29c0,0,0,0.01,0,0.01c-12.27,69.46-113.65,89.06-123.02,90.73l-5.55,1.33
			c-3.87,0.93-7.95,0.28-11.35-1.8s-5.82-5.42-6.75-9.3c-37.24-155.56-115.01-176.23-123.41-178.01
			c-89.74,16.46-222.56,66.59-352.82,210.94c-1.1,1.22-2.39,2.25-3.83,3.05C2013.66,2055,1975.38,2075.72,1924.07,2075.72z
			 M1798.47,1980.84c82.74,102.07,183.19,56.82,199.27,48.62c137.27-151.22,277.92-202.63,371.93-219.1
			c3.13-0.55,6.19-0.08,8.88,1.15c19.8,4.53,100.38,32.14,141.48,185.86c28.77-6.5,84.8-26.74,91.55-64.96
			c8.19-46.59-31.08-60.23-35.59-61.63c-5.71-1.78-9.87-6.8-10.5-12.75c-0.63-5.95,2.28-11.72,7.49-14.67
			c9.24-5.21,14.47-11.2,15.56-17.78c1.83-11.08-7.18-24.01-10.8-28.05c-5.49-6.13-5.06-15.6,1.02-21.15
			c23.21-21.17,20.84-39.89,17.81-48.55c-39.76-9.27-81.49-12.45-124.19-9.47c-195.82,13.69-376.89,154.09-467.39,236.56
			c-46.06,41.97-73.37,73.13-73.64,73.44c-4.27,4.89-11.2,6.47-17.17,3.94c-2.22-0.94-52.12-22.38-76.6-52.1
			C1824.5,1980.74,1811.43,1980.95,1798.47,1980.84z M2626.36,1935.02h0.05H2626.36z"/>
	</g>
	<g>
		<path class="st1" d="M2369.99,2399.53c-27.3,0-49.58-5.63-63.33-13.76c-7.13-4.22-9.49-13.42-5.27-20.55
			c4.22-7.13,13.43-9.47,20.55-5.27c25.16,14.9,128.97,25.39,223.33-74.79c87.29-92.65-41.22-237-42.52-238.45
			c-1.81-2-3.05-4.46-3.59-7.1c-1.55-7.71-3.07-14.53-4.64-20.87c-2-8.04,2.9-16.18,10.94-18.18c8.04-2,16.18,2.9,18.17,10.94
			c1.41,5.65,2.76,11.63,4.12,18.17c51.61,58.64,122.89,187.4,39.36,276.06C2500.23,2376.72,2424.95,2399.52,2369.99,2399.53z"/>
	</g>
	<g>
		<path class="st1" d="M2274.81,2395.03c-5.85,0-11.91-0.68-18.14-2.05c-2.71-0.57-5.46-1.28-8.19-2.13
			c-5.11-1.58-8.06-6.9-6.72-12.08c0.37-1.42,35.73-142.23-62.92-192.51c-0.21-0.11-0.44-0.24-0.67-0.38
			c-0.91-0.48-1.66-0.83-2.41-1.19c-3.48-1.67-5.69-5.18-5.68-9.04s2.23-7.37,5.72-9.02c0.05-0.02,0.13-0.06,0.21-0.1
			c6.93-3.69,76.91-38.56,138.05,21.35c38.93,38.14,49.78,118.32,22.77,168.21C2323.12,2381.43,2301.08,2395.03,2274.81,2395.03z
			 M2263.21,2373.91c30.86,5.84,47.47-11.52,56.03-27.32c22.84-42.19,13.52-112.37-19.18-144.4
			c-35.78-35.06-74.96-31.29-97.07-24.89C2282.72,2230.82,2269.45,2340.42,2263.21,2373.91z"/>
	</g>
	<g>
		<path class="st1" d="M2233.4,2154.82c5-7.66,10.45-15.06,17.61-20.74c3.28-3.09,7.27-5.35,10.95-7.76
			c3.96-2.05,7.84-4.06,11.98-5.42c8.15-2.92,16.53-4.45,24.78-4.86c8.29-0.36,16.36,0.18,24.4,1.96c1.05,0.23,1.71,1.27,1.48,2.32
			c-0.2,0.9-1,1.52-1.89,1.53h-0.15c-7.53,0.05-15.25,1.27-22.42,3.25c-7.21,2.02-13.99,5.01-19.96,8.83
			c-3.05,1.82-5.7,4.14-8.33,6.33c-2.35,2.54-4.91,4.75-6.74,7.62c-4.23,5.2-6.77,11.52-9.1,17.63l-0.27,0.7
			c-2.48,6.5-9.77,9.77-16.27,7.29c-6.51-2.48-9.77-9.77-7.29-16.27C2232.49,2156.38,2232.93,2155.54,2233.4,2154.82z"/>
	</g>
	<g>
		<path class="st1" d="M2251.66,2172.38c-2.04,0-4.06-0.83-5.54-2.45c-1.92-2.11-3.7-4.17-5.48-6.27
			c-113.25-134.26-11.02-291.68-9.97-293.26c2.29-3.45,6.94-4.38,10.39-2.1c3.45,2.29,4.39,6.94,2.1,10.39
			c-0.98,1.48-96.98,149.73,8.93,275.28c1.66,1.95,3.31,3.88,5.1,5.84c2.79,3.06,2.57,7.81-0.49,10.6
			C2255.27,2171.74,2253.47,2172.38,2251.66,2172.38z"/>
	</g>
	<g>
		<path class="st1" d="M2370.1,1812.82c10.45-0.91,20.89-1.67,31.33-1.97c10.43-0.39,20.88-0.3,31.28-0.02
			c10.41,0.4,20.78,1.08,31.09,2.23c10.33,1.18,20.52,2.63,30.76,5.03c1.33,0.31,2.16,1.65,1.85,2.98c-0.28,1.2-1.39,1.98-2.58,1.9
			l-0.12-0.01c-9.94-0.66-20.16-0.46-30.21,0.05c-10.08,0.54-20.12,1.52-30.1,2.78c-9.98,1.37-19.9,2.92-29.72,4.93
			c-9.84,1.91-19.58,4.26-29.25,6.73l-0.14,0.04c-6.72,1.71-13.55-2.34-15.26-9.06c-1.71-6.72,2.34-13.55,9.06-15.26
			C2368.73,1813,2369.45,1812.89,2370.1,1812.82z"/>
	</g>
	<g>
		<path class="st1" d="M1846.15,1982.28c-9.26,0-16.99-7.26-17.46-16.61c-0.49-9.65,6.94-17.88,16.59-18.36
			c78.66-3.98,137.23-18.36,144.96-20.33c1.57-0.44,3.2-0.67,4.79-0.67c9.66,0,17.5,7.83,17.5,17.5c0,7.92-5.26,14.61-12.48,16.77
			c-0.27,0.08-0.54,0.16-0.81,0.23c-6.85,1.76-69.08,17.26-152.2,21.46C1846.75,1982.27,1846.45,1982.28,1846.15,1982.28z"/>
	</g>
	<g>
		<path class="st1" d="M1947.23,2133.62c-124.91,0-225.63-75.46-229.3-171.79c-0.16-4.14,3.07-7.62,7.21-7.78
			c3.93-0.08,7.62,3.07,7.78,7.21c3.36,88.24,97.5,157.37,214.31,157.37c115.38,0,251.95-107.38,251.95-198.1
			c0-10.99-2.08-21.5-6.19-31.25c-1.61-3.82,0.19-8.22,4-9.82c3.84-1.61,8.21,0.19,9.82,4c4.88,11.6,7.36,24.07,7.36,37.07
			C2214.17,2020.1,2071.97,2133.62,1947.23,2133.62z"/>
	</g>
	<g>
		<path class="st1" d="M2481.1,555.23c-3.7,0-7.43-1.17-10.6-3.59l-6.89-5.3c-7.68-5.87-9.14-16.86-3.27-24.53
			c5.88-7.67,16.85-9.14,24.53-3.27l6.86,5.28c7.69,5.86,9.16,16.85,3.3,24.53C2491.58,552.86,2486.37,555.23,2481.1,555.23z"/>
	</g>
	<g>
		<path class="st1" d="M1183.58,1254.53l-9.15-10.89l-4.53-5.43l-4.03-5.8l-7.92-11.6l-6.85-12.18
			c-8.72-16.37-15.77-33.42-20.54-50.97c-4.94-17.48-8.28-35.24-10.02-53.05c-1.68-17.81-2.09-35.68-0.5-53.31
			c0.91,17.66,3.81,35.07,7.89,52.06c4.14,16.98,9.77,33.49,16.74,49.2c6.79,15.8,15.58,30.54,25.48,44.08l7.62,9.97l8.45,9.2
			l4.2,4.55l4.62,4.13l9.15,8.23l1,0.9c6.19,5.56,6.69,15.09,1.13,21.28c-5.56,6.19-15.09,6.69-21.28,1.13
			C1184.54,1255.59,1184.01,1255.04,1183.58,1254.53z"/>
	</g>
	<g>
		<path class="st1" d="M1247.77,1052.07c-2.94-15.53-5.34-31.03-5.52-46.57c-0.49-7.73,0.07-15.48,0.2-23.14
			c0.69-7.67,1.08-15.3,2.32-22.84c2.06-15.1,5.27-29.94,9.63-44.34c4.34-14.39,9.63-28.46,16.37-41.72
			c-4.41,14.18-7.21,28.72-9.03,43.27c-1.84,14.55-2.48,29.17-1.99,43.62c0.03,7.22,0.9,14.41,1.45,21.54
			c1.1,7.1,1.76,14.2,3.42,21.13c2.52,13.98,7.08,27.38,11.88,40.4l0.23,0.63c2.88,7.81-1.12,16.48-8.93,19.36
			c-7.81,2.88-16.48-1.12-19.36-8.93C1248.15,1053.7,1247.92,1052.84,1247.77,1052.07z"/>
	</g>
	<g>
		<path class="st1" d="M1439.28,1000.28c-2.47-10.94-4.61-21.85-5.73-32.87c-1.38-10.96-1.6-22.02-1.49-32.91
			c0.26-10.92,1.32-21.75,3.12-32.36c1.84-10.6,4.34-21.07,8.21-30.94c-1.44,10.47-1.39,20.99-0.72,31.35
			c0.73,10.36,2.17,20.59,4.34,30.6c2.32,9.99,4.89,19.81,8.49,29.28c3.35,9.52,7.58,18.66,11.98,27.58l0.13,0.27
			c3.69,7.49,0.61,16.56-6.89,20.24c-7.49,3.69-16.56,0.61-20.25-6.89C1439.94,1002.57,1439.53,1001.39,1439.28,1000.28z"/>
	</g>
	<g>
		<path class="st1" d="M1680.78,1124.1c-9.74-7.84-19.15-15.89-27.51-24.91c-8.54-8.8-16.18-18.33-23.16-28.16
			c-7.02-9.81-13.19-20.12-18.62-30.7c-5.41-10.58-10.16-21.47-13.59-32.7c5.73,10.22,12.56,19.67,19.87,28.59
			c7.32,8.92,15.19,17.3,23.63,24.93c8.4,7.66,17.19,14.77,26.5,20.94c9.14,6.4,18.96,11.63,28.72,16.53l0.41,0.21
			c7.45,3.75,10.46,12.82,6.71,20.28c-3.75,7.46-12.83,10.46-20.28,6.72C1682.52,1125.35,1681.58,1124.74,1680.78,1124.1z"/>
	</g>
	<g>
		<path class="st1" d="M1906.89,859.89c-7.74,10.65-11.98,22.81-14.01,34.87c-2.06,12.08-1.62,24.21,0.23,35.79l0.02-0.65
			c0,8.28-6.72,15-15,15s-15-6.72-15-15l0.02-0.79c3.27-14.17,8.35-27.79,15.75-39.78C1886.21,877.38,1895.69,866.88,1906.89,859.89
			z"/>
	</g>
	<g>
		<path class="st1" d="M1747.13,965.39c3.5,15.13,8.79,29.72,15.05,43.69c6.33,13.95,13.95,27.18,22.68,39.35
			c8.57,12.31,19.02,22.97,30.05,32.29l8.51,6.66c2.98,2,6.08,3.81,9.07,5.72l4.5,2.82l4.81,2.27l9.49,4.54l1.36,0.65
			c7.52,3.6,10.7,12.6,7.1,20.12c-3.6,7.52-12.6,10.7-20.12,7.1c-0.71-0.34-1.44-0.77-2.07-1.2l-10.52-7.27l-5.2-3.64l-4.79-4.17
			c-3.16-2.8-6.37-5.5-9.41-8.36l-8.49-9.18c-10.78-12.58-20.16-26.09-27.15-40.62c-7.17-14.41-12.77-29.36-16.9-44.58
			C1751.05,996.38,1748.16,980.91,1747.13,965.39z"/>
	</g>
	<g>
		<path class="st1" d="M1878.13,947.37c-9.66,0-17.5-7.81-17.5-17.48v-0.04c0-9.67,7.84-17.5,17.5-17.5s17.5,7.83,17.5,17.5
			C1895.63,939.51,1887.79,947.37,1878.13,947.37z"/>
	</g>
	<g>
		<path class="st1" d="M2018.6,1014.36v-0.04v-1.16c0-1.05,0.21-2.07,0.58-2.98c17.67-43.4,42.7-83.45,74.6-115.6
			c-24.04,38.4-38.6,80.97-45.77,123.89l0.59-4.14v0.04c0,8.29-6.72,15-15,15C2025.32,1029.36,2018.6,1022.65,2018.6,1014.36z"/>
	</g>
	<g>
		<path class="st1" d="M1340.8,1031.88c-1.46,14.48-0.61,29.12,1.56,43.33c2.21,14.21,5.7,28.14,10.85,41.34
			c5.14,13.17,11.16,25.9,18.91,37.5c3.51,5.99,7.95,11.4,12.05,16.93c4.2,5.47,9.11,10.42,13.55,15.6l1,1.17
			c5.42,6.33,4.69,15.85-1.64,21.27s-15.85,4.68-21.27-1.65c-0.5-0.58-0.99-1.26-1.38-1.89c-4.13-6.69-8.6-13.05-12.29-19.91
			c-3.59-6.93-7.42-13.64-10.24-20.89c-6.36-14.09-10.65-28.98-13.79-43.85c-3.16-14.9-4.4-30.07-4.28-45.04
			c0.17-14.98,1.75-29.87,5.61-44.21c0.1-0.37,0.48-0.59,0.85-0.49c0.33,0.09,0.55,0.41,0.51,0.74L1340.8,1031.88z"/>
	</g>
	<g>
		<path class="st14" d="M1941.56,2040.16c0,0,5.28,58.79,44.47,115.31"/>
		<path class="st1" d="M1986.04,2167.97c-3.96,0-7.86-1.88-10.28-5.38c-40.61-58.56-46.42-118.78-46.65-121.32
			c-0.62-6.88,4.46-12.95,11.33-13.57c6.86-0.6,12.95,4.45,13.57,11.32c0.09,0.93,5.72,56.58,42.29,109.32
			c3.93,5.67,2.52,13.46-3.15,17.4C1990.98,2167.25,1988.5,2167.97,1986.04,2167.97z"/>
	</g>
	<g>
		<path class="st14" d="M1854.89,2015.29c0,0-36.18,42.21-37.68,111.55"/>
		<path class="st1" d="M1817.21,2139.34c-0.09,0-0.19,0-0.28,0c-6.9-0.15-12.37-5.86-12.22-12.77
			c1.59-72.97,39.09-117.55,40.69-119.41c4.5-5.24,12.39-5.84,17.63-1.35c5.23,4.48,5.85,12.36,1.38,17.6
			c-0.54,0.64-33.32,40.27-34.7,103.71C1829.55,2133.92,1823.98,2139.34,1817.21,2139.34z"/>
	</g>
	<g>
		<path class="st4" d="M1802.54,2121.92l30.44,4.99c3.65,0.6,6.23,3.9,5.93,7.59l-2.6,31.72c-0.34,4.15-4.17,7.12-8.27,6.42
			l-33.82-5.77c-3.93-0.67-6.54-4.44-5.78-8.35l5.98-30.94C1795.14,2123.81,1798.74,2121.3,1802.54,2121.92z"/>
		<path class="st1" d="M1829.21,2182.74c-0.96,0-1.92-0.08-2.87-0.24l-33.81-5.77c-4.58-0.78-8.55-3.31-11.19-7.13
			c-2.64-3.81-3.61-8.42-2.73-12.98l5.98-30.94c1.77-9.16,10.36-15.12,19.56-13.63l30.44,4.99c8.73,1.42,15,9.45,14.28,18.27
			l-2.6,31.72c-0.39,4.78-2.78,9.19-6.56,12.12C1836.69,2181.49,1832.98,2182.74,1829.21,2182.74z M1798.81,2157.51l27.78,4.74
			l2.12-25.9l-25.02-4.1L1798.81,2157.51z M1831.36,2136.78h0.05H1831.36z"/>
	</g>
	<g>
		<path class="st4" d="M1963.11,2156.52l27.18-14.58c3.26-1.75,7.32-0.7,9.33,2.41l17.25,26.75c2.26,3.5,1.03,8.19-2.65,10.13
			l-30.34,16.02c-3.52,1.86-7.89,0.46-9.67-3.1l-14.09-28.18C1958.39,2162.52,1959.72,2158.34,1963.11,2156.52z"/>
		<path class="st1" d="M1980.58,2208.08c-1.76,0-3.53-0.27-5.25-0.83c-4.42-1.42-7.99-4.49-10.07-8.64l-14.1-28.18
			c-4.17-8.33-1-18.32,7.22-22.72l27.18-14.58c7.8-4.17,17.66-1.63,22.46,5.81l17.25,26.74c2.59,4.02,3.38,8.97,2.17,13.6
			s-4.33,8.55-8.55,10.79l-30.35,16.02C1986.04,2207.41,1983.33,2208.08,1980.58,2208.08z M1970.32,2164l11.51,23.02l24.92-13.16
			l-14.09-21.84L1970.32,2164z M1963.11,2156.52h0.05H1963.11z"/>
	</g>
	<g>
		<path class="st1" d="M1836.22,1689.74c-7.99,16.93-19.51,31.43-33.08,44.24c-13.59,12.73-29.6,23.43-47.5,30.61
			c-17.76,7.37-37.71,10.72-57.05,8.75c-9.65-1.01-19.13-3.18-27.96-6.76c-8.88-3.42-17.11-8.17-24.43-13.97
			c-1.64-1.3-1.92-3.69-0.62-5.33c0.83-1.05,2.1-1.54,3.34-1.42l0.15,0.02c17.83,1.85,34.12,3.4,50.03,1.9
			c15.84-1.19,31.15-4.56,46.09-10.09c14.95-5.48,29.39-13.19,43.44-22.18c14.02-8.99,27.82-19.33,41.21-30.36l0.23-0.19
			c1.7-1.4,4.22-1.16,5.63,0.54C1836.71,1686.72,1836.86,1688.38,1836.22,1689.74z"/>
	</g>
	<g>
		<path class="st1" d="M1698.99,1278.74c-5.56-27.98-0.49-59.14,15.74-85.58c8.2-13.11,19.32-25.03,33.24-33.77
			c13.83-8.79,30.55-14.09,47.56-14.52c17.02-0.42,34.18,4.15,48.76,12.4c14.74,8.09,26.93,19.68,36.32,32.72
			c18.8,26.22,26.73,58.34,24.32,88.74c-0.66,8.28-7.9,14.46-16.18,13.8c-7.32-0.58-13-6.31-13.76-13.35l-0.05-0.45
			c-2.69-24.6-10.63-48.05-24.65-66.32c-6.95-9.09-15.35-16.7-24.6-22.21c-9.34-5.38-19.56-8.53-30.16-8.98
			c-21.16-0.85-42.76,9.87-59.03,28.03c-8.3,8.93-15.13,19.69-20.67,31.39c-5.56,11.74-9.51,24.53-12.55,38.1l-0.01,0.05
			c-0.26,1.18-1.43,1.92-2.61,1.66C1699.79,1280.25,1699.16,1279.56,1698.99,1278.74z"/>
	</g>
	<g>
		<path class="st1" d="M1544.34,1327.57c-6.78-12.14-14.21-23.27-22.89-32.94c-8.65-9.64-18.26-18-28.76-24.19
			c-20.77-12.77-44.53-16.89-64.57-10.04c-10.03,3.45-18.93,9.39-26.35,17.2c-7.3,7.92-13.18,17.6-17.25,28.3
			c-8.23,21.51-9.15,46.25-4.72,70.6l0.08,0.44c1.49,8.17-3.93,16-12.1,17.49c-7.22,1.31-14.18-2.77-16.72-9.38
			c-10.98-28.45-12.54-61.5-1.99-91.99c5.29-15.18,13.66-29.76,25.49-41.72c11.62-12.07,26.77-21.34,43.2-25.79
			c16.43-4.44,33.96-4.12,49.73,0.36c15.83,4.4,29.89,12.67,41.49,22.89c23.09,20.72,36.83,49.15,39.48,77.55
			c0.11,1.2-0.77,2.26-1.97,2.38c-0.89,0.08-1.7-0.38-2.11-1.11L1544.34,1327.57z"/>
	</g>
	<g>
		<path class="st1" d="M2183.13,2194.73c-3.27,0-6.57-0.91-9.51-2.82c-0.42-0.27-0.86-0.53-1.3-0.79l-1-0.6
			c-8.27-5-10.91-15.77-5.91-24.03c5.01-8.27,15.79-10.9,24.03-5.91l0.74,0.44c0.83,0.49,1.67,0.99,2.48,1.52
			c8.11,5.26,10.42,16.1,5.16,24.2C2194.48,2191.91,2188.86,2194.73,2183.13,2194.73z"/>
	</g>
	<g>
		<path class="st1" d="M2185.76,2196.35c-3.24,0-6.52-0.9-9.45-2.78c-0.56-0.36-1.18-0.76-1.73-1.08
			c-8.35-4.86-11.18-15.58-6.32-23.93c4.86-8.36,15.59-11.19,23.93-6.32c0.99,0.57,2.08,1.26,3.06,1.89
			c8.13,5.23,10.48,16.05,5.25,24.18C2197.14,2193.52,2191.51,2196.35,2185.76,2196.35z"/>
	</g>
	<g>
		<path class="st10" d="M2547.04,1086.51c-9.8,8.86-21.99,23.26-28.34,43.85l140.7,121.75l21.15-73.69
			c2.62-9.13,1.15-18.98-4.21-26.82c-13.13-19.19-43.34-54.06-97.99-71.53C2567.5,1076.6,2555.5,1078.87,2547.04,1086.51z"/>
	</g>
	<g>
		<path class="st1" d="M2667.34,1278.81l-165.85-143.52l2.89-9.36c7.45-24.16,21.85-40.83,32.61-50.55v0
			c12.25-11.06,29.85-14.74,45.93-9.6c58.88,18.82,91.56,56.54,105.81,77.35c7.87,11.5,10.15,25.87,6.25,39.43L2667.34,1278.81z
			 M2536.41,1125.84l115.05,99.56l14.67-51.12c1.42-4.94,0.63-10.11-2.17-14.2c-12.07-17.64-39.84-49.62-90.18-65.72
			c-5.96-1.9-12.34-0.64-16.68,3.28C2550.55,1103.56,2542.2,1112.91,2536.41,1125.84z"/>
	</g>
	<g>
		<path class="st10" d="M2660.26,1441.98c-56.41,117.36-183.33,173.49-283.47,125.35c-100.14-48.13-135.6-182.3-79.19-299.66
			c56.41-117.36,183.32-173.49,283.47-125.35C2681.22,1190.45,2716.67,1324.62,2660.26,1441.98z"/>
	</g>
	<g class="st0">
		<path class="st1" d="M2432.86,1524.82c-100.14-48.13-135.6-182.3-79.19-299.66c13.59-28.27,31.29-52.94,51.7-73.5
			c-44.1,24.23-82.83,64.12-107.77,116.01c-56.41,117.37-20.96,251.53,79.19,299.66c76.03,36.54,167.46,12.95,231.78-51.86
			C2552.92,1546.05,2488.73,1551.68,2432.86,1524.82z"/>
	</g>
	<g>
		<path class="st1" d="M2453.22,1599.66c-28.75,0-56.85-6.27-82.93-18.81c-52.46-25.21-90.21-72.64-106.31-133.56
			c-15.86-60.05-8.73-126.15,20.1-186.13c28.83-59.98,75.99-106.84,132.79-131.96c57.62-25.49,118.25-25.63,170.7-0.41
			c52.46,25.21,90.21,72.64,106.31,133.55c15.86,60.05,8.73,126.15-20.1,186.13l0,0c-28.83,59.98-75.99,106.84-132.79,131.96
			C2512.02,1593.25,2482.29,1599.66,2453.22,1599.66z M2504.62,1140.03c-24.96,0-50.57,5.54-75.62,16.62
			c-50.28,22.23-92.14,63.97-117.88,117.52c-25.74,53.55-32.18,112.31-18.13,165.46c13.82,52.29,45.89,92.84,90.3,114.18
			c44.41,21.35,96.1,21.06,145.57-0.81c50.28-22.23,92.14-63.97,117.88-117.52c25.74-53.55,32.18-112.31,18.13-165.46
			c-13.82-52.29-45.89-92.83-90.3-114.18C2552.65,1145.3,2528.95,1140.03,2504.62,1140.03z"/>
	</g>
	<g>
		<path class="st15" d="M2664.67,1427.66c-47.14,98.08-153.21,144.98-236.9,104.75c-83.69-40.23-113.32-152.35-66.18-250.43
			c47.14-98.08,153.2-144.98,236.89-104.75C2682.18,1217.46,2711.81,1329.58,2664.67,1427.66z"/>
	</g>
	<g class="st0">
		<path class="st1" d="M2480.37,1489.9c-77.57-40.23-105.04-152.35-61.34-250.43c9.36-21.02,21.25-39.66,34.89-55.63
			c-37.78,20.12-71.05,53.9-92.32,98.14c-47.14,98.08-17.51,210.2,66.18,250.43c73.39,35.27,163.97,3.54,216.95-70.93
			C2596.34,1504.12,2533.49,1517.45,2480.37,1489.9z"/>
	</g>
	<g>
		<path class="st1" d="M2491.65,1559.39c-24.02,0-47.5-5.24-69.29-15.71c-43.83-21.07-75.37-60.7-88.82-111.59
			c-13.26-50.17-7.29-105.4,16.8-155.52c24.08-50.11,63.49-89.27,110.95-110.26c48.15-21.29,98.8-21.41,142.63-0.35
			c43.83,21.07,75.37,60.7,88.82,111.59c13.26,50.17,7.29,105.4-16.8,155.52c-24.09,50.11-63.49,89.27-110.95,110.26
			C2540.78,1554.04,2515.94,1559.39,2491.65,1559.39z M2534.6,1175.29c-20.86,0-42.27,4.63-63.21,13.89
			c-42.03,18.58-77.02,53.47-98.53,98.23s-26.89,93.87-15.16,138.3c11.55,43.71,38.36,77.6,75.48,95.44
			c37.13,17.85,80.34,17.6,121.68-0.68c42.02-18.58,77.02-53.47,98.53-98.23s26.89-93.87,15.16-138.3
			c-11.55-43.7-38.36-77.6-75.48-95.44C2574.75,1179.69,2554.94,1175.29,2534.6,1175.29z"/>
	</g>
	<g>
		
			<ellipse transform="matrix(0.4332 -0.9013 0.9013 0.4332 215.3676 3052.9385)" class="st15" cx="2535" cy="1355.24" rx="77.3" ry="65.96"/>
	</g>
	<g>
		<path class="st1" d="M2526.41,1443.02c-10.34,0-20.64-2.2-30.31-6.85c-38.99-18.74-53.26-70.29-31.81-114.92
			c21.46-44.63,70.64-65.68,109.61-46.95c38.99,18.74,53.26,70.29,31.81,114.92l0,0
			C2589.58,1422.78,2557.78,1443.02,2526.41,1443.02z M2543.41,1292.41c-21.95,0-44.75,15.04-56.59,39.67
			c-15.47,32.2-6.46,68.79,20.11,81.56c26.57,12.77,60.78-3.04,76.25-35.24c15.47-32.2,6.46-68.79-20.11-81.56
			C2556.83,1293.83,2550.16,1292.41,2543.41,1292.41z M2594.45,1383.81h0.05H2594.45z"/>
	</g>
	<g>
		<g>
			<path class="st1" d="M2642.18,1453.02c1.23,1.16-4.68,10.35-17.71,22.16c-6.62,5.73-14.86,12.32-25.07,18.07
				c-10.08,5.91-21.92,11.36-35.07,14.95c-13.12,3.64-26.13,5.41-37.98,5.21c-11.83-0.39-22.46-1.83-30.94-4.65
				c-17.1-5.24-25.8-12.27-25.04-13.67c0.93-1.96,10.91,1.72,27.16,4.18c8.09,1.46,17.88,1.75,28.6,1.47
				c10.76-0.49,22.48-2.47,34.46-5.78c12.02-3.26,23.06-7.94,32.77-12.85c9.82-4.75,18.12-10.14,25.17-14.62
				C2632.39,1458.19,2640.69,1451.55,2642.18,1453.02z"/>
		</g>
	</g>
	<g>
		<g>
			<path class="st1" d="M2406.56,1424.52c-1.45,0.75-9.95-11.54-15.7-34.73c-5.73-22.94-6.93-57.17,4.42-91.99
				c5.58-17.34,13.29-33.05,22.08-46.16c8.72-13.16,18.41-23.67,27.22-31.59c17.85-15.78,31.64-21.37,32.46-19.93
				c1.16,1.77-10.46,10.17-25.6,26.82c-15.14,16.53-32.83,42.48-43.06,75.05c-10.56,32.41-10.97,63.88-7.96,86.03
				C2403.42,1410.27,2408.53,1423.67,2406.56,1424.52z"/>
		</g>
	</g>
	<g>
		<path class="st12" d="M2199.93,2381.13l-0.23,0.45c0,0,5.65,44.68-40.11,42.96c-28.67-1.04-46.26-22.11-48.43-47.26
			c-18.4-7.01-42.15-20.35-46.71-43.37c-34.37-10.99-44.54-29.71-43.19-49.43l-14.92,8.19c-13.88,7.6-31.07,5.34-42.51-5.65
			c-7.33-7.01-11.12-16.51-11.12-26.09c0-6.28,1.63-12.57,4.93-18.31c27.95-48.21,101.03-140.55,222.76-67.06l-0.32,0.13
			c1.04,0.5,2.08,1,3.07,1.54l0.23,0.13c107.17,54.63,68.06,203.95,68.06,203.95C2253.92,2382.08,2225.93,2393.29,2199.93,2381.13z"
			/>
	</g>
	<g>
		<path class="st12" d="M2199.93,2381.13l-0.23,0.45c0,0,5.65,44.68-40.11,42.96c-28.67-1.04-46.26-22.11-48.43-47.26
			c-18.4-7.01-42.15-20.35-46.71-43.37c-34.37-10.99-44.54-29.71-43.19-49.43l-14.92,8.19c-13.88,7.6-31.07,5.34-42.51-5.65
			c-7.33-7.01-11.12-16.51-11.12-26.09c0-6.28,1.63-12.57,4.93-18.31c27.95-48.21,101.03-140.55,222.76-67.06l-0.32,0.13
			c1.04,0.5,2.08,1,3.07,1.54l0.23,0.13c107.17,54.63,68.06,203.95,68.06,203.95C2253.92,2382.08,2225.93,2393.29,2199.93,2381.13z"
			/>
	</g>
	<g>
		<path class="st1" d="M2162.16,2437.09c-1,0-2.02-0.02-3.04-0.06c-30.09-1.09-53.54-21.62-59.32-50.88
			c-23.88-10.45-39.46-25-45.64-42.58c-26.53-10-38.47-24.79-43.06-39.27c-18.54,9.47-40.84,6.23-55.93-8.26
			c-9.51-9.09-14.97-21.89-14.97-35.1c0-8.55,2.28-17.04,6.6-24.55c17.18-29.64,54.68-81.54,113.04-96.51
			c39.88-10.23,82.61-1.83,127.01,24.98c0.43,0.26,0.84,0.54,1.23,0.84c0.36,0.18,0.7,0.37,1.05,0.55c0.11,0.06,0.22,0.12,0.33,0.19
			c96.2,49.38,83.24,168.93,76.47,206.53c2.78,1.94,4.72,4.99,5.21,8.5c0.74,5.22-1.88,10.34-6.55,12.8
			c-11.61,6.11-29.57,11.08-53.33,4.42c-1.5,7.62-4.76,16.33-11.5,23.71C2190.81,2432.15,2178.18,2437.09,2162.16,2437.09z
			 M2021.25,2271.99c2.34,0,4.69,0.66,6.73,1.97c3.85,2.46,6.05,6.83,5.74,11.39c-0.74,10.77,2.04,26.28,34.53,36.67
			c4.33,1.38,7.57,5.01,8.45,9.47c3.6,18.17,25.92,29.17,38.9,34.12c4.48,1.7,7.59,5.83,8.01,10.61
			c1.38,15.97,11.74,34.94,36.43,35.84c9.76,0.36,16.88-1.81,21.19-6.46c6.29-6.79,6.51-18.56,6.06-22.52
			c-0.27-2.38,0.14-4.88,1.21-7.03l0.22-0.45c3.02-6.09,10.34-8.66,16.5-5.78c12.64,5.91,24.18,8.13,34.52,6.63
			c3.68-16.15,28.92-141.57-62.05-187.93c-0.28-0.14-0.55-0.3-0.82-0.46c-0.51-0.27-1.36-0.67-2.2-1.08
			c-1.16-0.56-2.21-1.27-3.12-2.12c-37.57-22.09-73.07-29.08-105.5-20.75c-49.53,12.71-82.41,58.58-97.61,84.8
			c-2.12,3.68-3.25,7.86-3.25,12.05c0,6.42,2.65,12.64,7.27,17.06c7.53,7.24,18.73,8.73,27.87,3.72l14.91-8.18
			C2017.12,2272.5,2019.19,2271.99,2021.25,2271.99z"/>
	</g>
	<g>
		<path class="st1" d="M2194.62,2392.45c-7.2-5.39-13.51-11.32-19.28-17.49c-2.73-2.92-2.58-7.49,0.34-10.22
			c2.09-1.96,5.04-2.43,7.55-1.46l0.13,0.05c7.31,2.84,14.68,5.11,21.87,6.48c6.99,1.33,11.59,8.08,10.26,15.08
			c-1.33,6.99-8.08,11.59-15.08,10.26c-1.97-0.38-3.75-1.18-5.26-2.3L2194.62,2392.45z"/>
	</g>
	<g>
		<path class="st1" d="M2099.48,2367.65c10.49-17.23,26.77-27.86,43-32.38c0.46-0.13,0.93,0.14,1.06,0.6
			c0.09,0.32-0.02,0.66-0.25,0.87c-12.29,11.15-19.59,25.94-20.32,39.48c-0.39,7.19-6.53,12.7-13.71,12.32
			c-7.19-0.38-12.71-6.52-12.32-13.71c0.12-2.21,0.78-4.26,1.85-6.03L2099.48,2367.65z"/>
	</g>
	<g>
		<path class="st1" d="M2050.87,2330.48c1.31-6.55,3.75-12.62,6.95-17.8c3.19-5.21,6.99-9.65,11.03-13.53
			c8.1-7.77,17.15-13.41,26.32-18.25c1.31-0.69,2.94-0.19,3.63,1.12c0.56,1.05,0.35,2.3-0.43,3.11l-0.03,0.03
			c-6.95,7.25-13.23,15.03-17.5,23.26c-2.14,4.09-3.74,8.26-4.62,12.29c-0.91,4.04-0.94,7.9-0.41,11.41
			c1.06,6.98-3.73,13.49-10.71,14.55s-13.49-3.74-14.55-10.71c-0.23-1.49-0.19-2.97,0.09-4.37L2050.87,2330.48z"/>
	</g>
	<g>
		<path class="st1" d="M2067.53,2209.95c-4.65,5.68-9,11.81-13.02,17.98c-3.98,6.21-7.74,12.52-10.85,19.02
			c-3.09,6.49-5.88,13.05-7.63,19.61c-1.74,6.53-2.63,12.99-2.3,18.76c0.4,6.94-4.9,12.9-11.85,13.3c-6.95,0.4-12.9-4.9-13.3-11.85
			c-0.06-0.95,0-1.88,0.14-2.77l0.06-0.31c1.57-9.25,4.84-17.36,8.68-24.75c3.88-7.39,8.57-13.92,13.44-20.15
			c4.89-6.22,10.23-11.89,15.71-17.34c5.53-5.42,11.18-10.53,17.28-15.34c1.15-0.91,2.83-0.71,3.74,0.44c0.79,1,0.74,2.39-0.03,3.33
			L2067.53,2209.95z"/>
	</g>
	<g>
		<path class="st11" d="M1654.6,2020.17l352.37,496.2c5.46,7.69,8.25,17.16,6.94,26.5c-1.32,9.42-6.78,18.84-23.36,18.84
			c-30.09,0-575.75-27.3-676.66-32.36c-10.09-0.51-19.33-5.69-25.06-14.01l-285.6-415.56c-5.12-7.45-7.9-16.26-7.82-25.3l0.01-0.8
			c0.36-21.06,15.43-38.98,36.12-42.93c71.1-13.58,351.91-61.99,591.38-29.7C1635.67,2002.77,1647.15,2009.68,1654.6,2020.17z"/>
	</g>
	<g class="st7">
		<g>
			<path class="st4" d="M1343.85,2526.65l-285.6-415.56c-5.12-7.45-7.9-16.26-7.82-25.3l0.01-0.8
				c0.36-21.06,15.43-38.98,36.12-42.93c67.57-12.91,324.51-57.26,555.39-33.93c-5.7-3.68-12.16-6.16-19.03-7.08
				c-239.46-32.29-520.28,16.12-591.38,29.7c-20.69,3.95-35.77,21.87-36.12,42.93l-0.01,0.8c-0.08,9.04,2.7,17.85,7.82,25.3
				l285.6,415.56c5.72,8.32,14.97,13.5,25.06,14.01c8.34,0.42,19.78,0.99,33.66,1.69
				C1346.21,2529.69,1344.95,2528.24,1343.85,2526.65z"/>
		</g>
	</g>
	<g class="st3">
		<path class="st1" d="M2013.93,2542.89c-1.31,9.41-6.78,18.81-23.38,18.81c-30.07,0-575.76-27.27-676.64-32.33
			c-10.08-0.5-19.35-5.7-25.05-14.02l56.28-5.1c227.43-20.62,363.67-262.7,263.3-467.82l0,0l27.58-37.53
			c7.37,3.3,13.79,8.55,18.59,15.28l352.36,496.21C2012.44,2524.07,2015.24,2533.52,2013.93,2542.89z"/>
	</g>
	<g>
		<path class="st1" d="M1990.55,2576.71c-29.34,0-525.92-24.78-677.41-32.37c-14.64-0.74-28.34-8.4-36.67-20.49l-285.61-415.56
			c-6.94-10.1-10.56-21.83-10.46-33.93l0.01-0.85c0.47-28.08,20.79-52.23,48.31-57.48c79.35-15.16,356.85-62.1,596.2-29.84
			c16.83,2.27,32.1,11.49,41.9,25.31l352.37,496.19c7.96,11.21,11.36,24.45,9.57,37.27
			C2025.99,2564.84,2011.7,2576.71,1990.55,2576.71z M1444.58,2005.07c-180.95,0-351.2,29.14-410.23,40.42
			c-13.64,2.61-23.7,14.57-23.93,28.45l-0.01,0.73c-0.05,5.85,1.74,11.62,5.18,16.62l285.61,415.56c3.1,4.51,8,7.26,13.45,7.53
			c107.71,5.4,646.53,32.33,675.91,32.33c7.68,0,8.01-2.35,8.51-5.92c0.72-5.13-0.86-10.86-4.32-15.73l-352.38-496.2v0
			c-5.01-7.06-12.83-11.78-21.46-12.94C1563.32,2008.15,1503.38,2005.07,1444.58,2005.07z"/>
	</g>
	<g>
		<path class="st9" d="M1981.46,2561.47c-0.91-1.77-1.95-3.53-3.12-5.16l-352.36-496.21c-7.46-10.49-18.95-17.37-31.7-19.08
			c-239.45-32.33-520.27,16.1-591.36,29.67c-2.58,0.5-5.07,1.22-7.46,2.13"/>
	</g>
	<g>
		<path class="st1" d="M1981.47,2573.98c-4.54,0-8.91-2.48-11.13-6.79c-0.7-1.36-1.42-2.55-2.14-3.56l-352.42-496.29
			c-5.41-7.59-13.85-12.68-23.18-13.93c-234.98-31.73-508.97,14.6-587.34,29.56c-1.75,0.34-3.57,0.86-5.4,1.55
			c-6.47,2.43-13.67-0.83-16.11-7.29c-2.43-6.46,0.83-13.67,7.29-16.11c3.14-1.18,6.34-2.09,9.5-2.71
			c79.35-15.14,356.68-61.99,595.41-29.78c16.15,2.18,30.81,11.01,40.21,24.22l352.37,496.22c1.4,1.94,2.78,4.21,4.05,6.68
			c3.15,6.14,0.74,13.68-5.41,16.83C1985.35,2573.53,1983.4,2573.98,1981.47,2573.98z"/>
	</g>
	<g>
		<line class="st16" x1="2385.95" y1="1566.19" x2="2369.14" y2="1591.55"/>
		<path class="st1" d="M2369.11,1626.56c-6.64,0-13.35-1.89-19.31-5.83c-16.11-10.68-20.51-32.4-9.83-48.51l16.82-25.36
			c10.68-16.11,32.39-20.52,48.51-9.83c16.11,10.68,20.51,32.4,9.83,48.51l-16.82,25.36
			C2391.58,1621.05,2380.45,1626.56,2369.11,1626.56z"/>
	</g>
	<g class="st3">
		<path class="st1" d="M2183.56,2174.16l-0.23-0.13c-0.99-0.54-2.03-1.04-3.07-1.54l0.32-0.13c-5.74-3.46-11.33-6.44-16.85-9.19
			c29.06,27.63,70.91,76.73,67.44,127.79c-5.28,77.63-59.54,13.57-87.43,24.12c-27.89,10.55-107.78-27.13-101.75-58.79
			c6.03-31.65,7.54-33.92,7.54-33.92s-29.39,7.54-50.5,28.64c-12.76,12.76-27.71-3.13-37.55-17.7c-1.29,2.09-2.52,4.15-3.66,6.11
			c-3.3,5.74-4.93,12.03-4.93,18.31c0,9.59,3.8,19.08,11.12,26.09c11.44,10.99,28.63,13.25,42.51,5.65l14.92-8.19
			c-1.36,19.72,8.82,38.44,43.19,49.43c4.57,23.02,28.31,36.36,46.71,43.37c2.17,25.15,19.76,46.21,48.43,47.26
			c45.76,1.72,40.11-42.96,40.11-42.96l0.23-0.45c26,12.16,54,0.95,51.51,0.18C2251.61,2378.1,2290.73,2228.78,2183.56,2174.16z"/>
	</g>
	<g>
		<g>
			<g>
				<g>
					<path class="st1" d="M1771.73,1342.15c40.89-18.63,93.53,18.71,117.57,83.4c24.04,64.69,10.39,132.23-30.5,150.86
						c-40.89,18.63-93.53-18.71-117.57-83.4C1717.18,1428.32,1730.84,1360.78,1771.73,1342.15z"/>
				</g>
			</g>
		</g>
		<g>
			<g>
				<g>
					<path class="st4" d="M1782.31,1369.08c15.1,1.66,27.08,22.42,26.74,46.38c-0.33,23.96-12.84,42.03-27.94,40.38
						c-15.1-1.66-27.08-22.42-26.74-46.38C1754.7,1385.5,1767.21,1367.42,1782.31,1369.08z"/>
					<path class="st1" d="M1783.03,1458.65c-0.74,0-1.47-0.04-2.22-0.12c-16.43-1.8-29.51-23.83-29.16-49.11
						c0.22-15.7,5.51-29.63,14.15-37.26c5.02-4.44,10.8-6.42,16.81-5.78l0,0c16.7,1.83,29.52,23.4,29.16,49.11
						c-0.21,15.69-5.5,29.62-14.14,37.26C1793.23,1456.63,1788.23,1458.65,1783.03,1458.65z M1780.42,1371.69
						c-3.87,0-7.65,1.55-11.03,4.54c-7.51,6.64-12.11,19.07-12.31,33.27c-0.31,22.56,10.6,42.14,24.33,43.64
						c4.4,0.48,8.78-1.05,12.63-4.45c7.51-6.64,12.11-19.08,12.3-33.26c0.31-22.56-10.6-42.14-24.33-43.64l0,0
						C1781.48,1371.72,1780.95,1371.69,1780.42,1371.69z"/>
				</g>
			</g>
		</g>
		<g>
			<g>
				<g>
					<path class="st17" d="M1866.62,1497.35c7.76,3.02,11.95,15.26,9.35,27.35c-2.59,12.09-10.99,19.44-18.75,16.43
						c-7.76-3.02-11.95-15.26-9.35-27.35C1850.47,1501.69,1858.86,1494.33,1866.62,1497.35z"/>
					<path class="st1" d="M1860.79,1544.53c-1.53,0-3.06-0.29-4.55-0.87c-9.09-3.54-13.93-16.91-11.02-30.45
						c1.73-8.06,6.02-14.63,11.47-17.57c3.56-1.93,7.33-2.2,10.9-0.81c9.09,3.53,13.93,16.91,11.02,30.45
						c-1.73,8.07-6.03,14.64-11.48,17.58C1865.07,1543.97,1862.92,1544.53,1860.79,1544.53z M1863.06,1499.38
						c-1.25,0-2.52,0.34-3.79,1.03c-4.07,2.19-7.34,7.4-8.75,13.93c-2.29,10.64,1.23,21.75,7.68,24.26c2.08,0.8,4.22,0.63,6.37-0.53
						c4.07-2.2,7.34-7.41,8.75-13.94c2.28-10.64-1.24-21.75-7.68-24.25C1864.79,1499.55,1863.93,1499.38,1863.06,1499.38z"/>
				</g>
			</g>
		</g>
	</g>
	<g>
		<g>
			<g>
				<g>
					<path class="st1" d="M1477.47,1442.76c38.35-18.02,88.41,16.61,111.8,77.34c23.39,60.74,11.26,124.58-27.09,142.61
						c-38.35,18.02-88.41-16.61-111.8-77.34C1426.98,1524.63,1439.11,1460.79,1477.47,1442.76z"/>
				</g>
			</g>
		</g>
		<g>
			<g>
				<g>
					<path class="st4" d="M1487.74,1468.04c14.26,1.4,25.78,20.84,25.74,43.44c-0.05,22.6-11.65,39.78-25.91,38.39
						c-14.26-1.39-25.78-20.84-25.73-43.44C1461.88,1483.83,1473.48,1466.65,1487.74,1468.04z"/>
					<path class="st1" d="M1489.19,1552.66c-0.63,0-1.25-0.03-1.88-0.09c-15.85-1.55-28.23-21.82-28.19-46.15
						c0.03-14.85,4.88-28.08,12.98-35.41c4.72-4.27,10.21-6.26,15.91-5.67l0,0c15.85,1.55,28.24,21.82,28.18,46.15
						c-0.03,14.84-4.88,28.08-12.97,35.41C1499.02,1550.69,1494.21,1552.66,1489.19,1552.66z M1486.16,1470.68
						c-3.67,0-7.25,1.49-10.42,4.36c-6.98,6.32-11.16,18.05-11.19,31.39c-0.04,21.2,10.41,39.48,23.29,40.73
						c4.14,0.37,8.18-1.08,11.74-4.3c6.98-6.32,11.16-18.05,11.19-31.39c0.05-21.2-10.4-39.48-23.28-40.73
						C1487.04,1470.7,1486.6,1470.68,1486.16,1470.68z"/>
				</g>
			</g>
		</g>
		<g>
			<g>
				<g>
					<path class="st17" d="M1568.67,1588.08c7.35,2.76,11.43,14.26,9.12,25.69c-2.31,11.43-10.15,18.46-17.5,15.7
						c-7.35-2.76-11.43-14.26-9.12-25.69C1553.49,1592.35,1561.32,1585.32,1568.67,1588.08z"/>
					<path class="st1" d="M1563.56,1632.79c-1.42,0-2.83-0.26-4.22-0.78c-8.68-3.26-13.44-15.89-10.83-28.77
						c1.55-7.66,5.55-13.95,10.7-16.8c3.37-1.88,6.98-2.18,10.41-0.9c8.68,3.26,13.44,15.89,10.83,28.77
						c-1.55,7.67-5.55,13.95-10.7,16.8C1567.74,1632.23,1565.65,1632.79,1563.56,1632.79z M1565.42,1590.19
						c-1.18,0-2.37,0.33-3.56,0.99c-3.78,2.1-6.78,7-8.01,13.13c-2.03,9.99,1.37,20.35,7.41,22.61c1.91,0.71,3.89,0.53,5.87-0.56
						c3.78-2.09,6.78-7,8.01-13.13c2.03-9.99-1.37-20.35-7.41-22.61l0,0C1566.96,1590.33,1566.19,1590.19,1565.42,1590.19z"/>
				</g>
			</g>
		</g>
	</g>
</g>
</svg>
